<?xml version="1.0" encoding="UTF-8" standalone="no"?><!DOCTYPE svg PUBLIC "-//W3C//DTD SVG 1.1//EN" "http://www.w3.org/Graphics/SVG/1.1/DTD/svg11.dtd"><svg width="24px" height="24px" version="1.1" xmlns="http://www.w3.org/2000/svg" xmlns:xlink="http://www.w3.org/1999/xlink" xml:space="preserve" xmlns:serif="http://www.serif.com/" style="fill-rule:evenodd;clip-rule:evenodd;stroke-linejoin:round;stroke-miterlimit:1.41421;"><g><path d="M21,19l3,0l0,2l-3,0l0,3l-2,0l0,-3l-3,0l0,-2l3,0l0,-3l2,0l0,3Zm-6.921,1.974l-1.513,0.85c-0.161,0.111 -0.356,0.176 -0.566,0.176c-0.21,0 -0.405,-0.065 -0.566,-0.176l-7.907,-4.443c-0.314,-0.168 -0.527,-0.5 -0.527,-0.881l0,-9c0,-0.381 0.213,-0.713 0.527,-0.881l7.907,-4.443c0.161,-0.111 0.356,-0.176 0.566,-0.176c0.21,0 0.405,0.065 0.566,0.176l7.907,4.443c0.314,0.168 0.527,0.5 0.527,0.881l0,6.583c-0.325,-0.055 -0.659,-0.083 -1,-0.083c-0.341,0 -0.675,0.028 -1,0.083l0,-4.874l-6,3.372l0,6.707l1.156,-0.65c-0.102,0.438 -0.156,0.894 -0.156,1.362c0,0.332 0.027,0.657 0.079,0.974Zm-9.079,-5.059l6,3.372l0,-6.706l-6,-3.372l0,6.706Zm7.001,-11.764l-5.96,3.349l5.96,3.349l5.958,-3.349l-5.958,-3.349Z" style="fill-rule:nonzero;"/></g></svg>