<?xml version="1.0" encoding="UTF-8" standalone="no"?><!DOCTYPE svg PUBLIC "-//W3C//DTD SVG 1.1//EN" "http://www.w3.org/Graphics/SVG/1.1/DTD/svg11.dtd"><svg width="24px" height="24px" version="1.1" xmlns="http://www.w3.org/2000/svg" xmlns:xlink="http://www.w3.org/1999/xlink" xml:space="preserve" xmlns:serif="http://www.serif.com/" style="fill-rule:evenodd;clip-rule:evenodd;stroke-linejoin:round;stroke-miterlimit:1.41421;"><path d="M7.892,20.05c-0.579,0 -1.05,-0.471 -1.05,-1.05c0,-0.579 0.471,-1.05 1.05,-1.05c0.579,0 1.05,0.471 1.05,1.05c0,0.579 -0.471,1.05 -1.05,1.05m2.229,-0.759c0.012,-0.096 0.021,-0.192 0.021,-0.291c0,-0.099 -0.009,-0.198 -0.021,-0.3l0.633,-0.489c0.057,-0.045 0.072,-0.126 0.036,-0.192l-0.6,-1.038c-0.036,-0.066 -0.117,-0.093 -0.183,-0.066l-0.747,0.3c-0.156,-0.117 -0.318,-0.219 -0.507,-0.294l-0.111,-0.795c-0.012,-0.072 -0.075,-0.126 -0.15,-0.126l-1.2,0c-0.075,0 -0.138,0.054 -0.15,0.126l-0.111,0.795c-0.189,0.075 -0.351,0.177 -0.507,0.294l-0.747,-0.3c-0.066,-0.027 -0.147,0 -0.183,0.066l-0.6,1.038c-0.039,0.066 -0.021,0.147 0.036,0.192l0.633,0.489c-0.012,0.102 -0.021,0.201 -0.021,0.3c0,0.099 0.009,0.195 0.021,0.291l-0.633,0.498c-0.057,0.045 -0.075,0.126 -0.036,0.192l0.6,1.038c0.036,0.066 0.117,0.09 0.183,0.066l0.747,-0.303c0.156,0.12 0.318,0.222 0.507,0.297l0.111,0.795c0.012,0.072 0.075,0.126 0.15,0.126l1.2,0c0.075,0 0.138,-0.054 0.15,-0.126l0.111,-0.795c0.189,-0.078 0.351,-0.177 0.507,-0.297l0.747,0.303c0.066,0.024 0.147,0 0.183,-0.066l0.6,-1.038c0.036,-0.066 0.021,-0.147 -0.036,-0.192l-0.633,-0.498Z" style="fill-rule:nonzero;"/><path d="M16.862,18.75c-0.965,0 -1.75,-0.785 -1.75,-1.75c0,-0.965 0.785,-1.75 1.75,-1.75c0.965,0 1.75,0.785 1.75,1.75c0,0.965 -0.785,1.75 -1.75,1.75m3.715,-1.265c0.02,-0.16 0.035,-0.32 0.035,-0.485c0,-0.165 -0.015,-0.33 -0.035,-0.5l1.055,-0.815c0.095,-0.075 0.12,-0.21 0.06,-0.32l-1,-1.73c-0.06,-0.11 -0.195,-0.155 -0.305,-0.11l-1.245,0.5c-0.26,-0.195 -0.53,-0.365 -0.845,-0.49l-0.185,-1.325c-0.02,-0.12 -0.125,-0.21 -0.25,-0.21l-2,0c-0.125,0 -0.23,0.09 -0.25,0.21l-0.185,1.325c-0.315,0.125 -0.585,0.295 -0.845,0.49l-1.245,-0.5c-0.11,-0.045 -0.245,0 -0.305,0.11l-1,1.73c-0.065,0.11 -0.035,0.245 0.06,0.32l1.055,0.815c-0.02,0.17 -0.035,0.335 -0.035,0.5c0,0.165 0.015,0.325 0.035,0.485l-1.055,0.83c-0.095,0.075 -0.125,0.21 -0.06,0.32l1,1.73c0.06,0.11 0.195,0.15 0.305,0.11l1.245,-0.505c0.26,0.2 0.53,0.37 0.845,0.495l0.185,1.325c0.02,0.12 0.125,0.21 0.25,0.21l2,0c0.125,0 0.23,-0.09 0.25,-0.21l0.185,-1.325c0.315,-0.13 0.585,-0.295 0.845,-0.495l1.245,0.505c0.11,0.04 0.245,0 0.305,-0.11l1,-1.73c0.06,-0.11 0.035,-0.245 -0.06,-0.32l-1.055,-0.83Z" style="fill-rule:nonzero;"/><path d="M8.595,10.775c-1.255,0 -2.275,-1.021 -2.275,-2.275c0,-1.254 1.02,-2.275 2.275,-2.275c1.254,0 2.275,1.021 2.275,2.275c0,1.255 -1.021,2.275 -2.275,2.275m4.829,-1.645c0.026,-0.208 0.046,-0.416 0.046,-0.63c0,-0.214 -0.02,-0.429 -0.046,-0.65l1.372,-1.059c0.123,-0.098 0.156,-0.273 0.078,-0.416l-1.3,-2.249c-0.078,-0.143 -0.254,-0.202 -0.397,-0.143l-1.618,0.65c-0.338,-0.254 -0.689,-0.475 -1.099,-0.638l-0.24,-1.722c-0.026,-0.156 -0.163,-0.273 -0.325,-0.273l-2.6,0c-0.163,0 -0.299,0.117 -0.325,0.273l-0.241,1.722c-0.409,0.163 -0.76,0.384 -1.098,0.638l-1.619,-0.651c-0.143,-0.058 -0.318,0 -0.396,0.143l-1.3,2.25c-0.085,0.143 -0.046,0.318 0.078,0.415l1.371,1.06c-0.026,0.221 -0.045,0.436 -0.045,0.65c0,0.214 0.019,0.422 0.045,0.63l-1.371,1.079c-0.124,0.098 -0.163,0.273 -0.078,0.416l1.3,2.249c0.078,0.143 0.253,0.195 0.396,0.143l1.619,-0.656c0.338,0.26 0.689,0.481 1.098,0.643l0.241,1.723c0.026,0.156 0.162,0.273 0.325,0.273l2.6,0c0.162,0 0.299,-0.117 0.325,-0.273l0.24,-1.723c0.41,-0.169 0.761,-0.383 1.099,-0.643l1.618,0.656c0.143,0.052 0.319,0 0.397,-0.143l1.3,-2.249c0.078,-0.143 0.045,-0.318 -0.078,-0.416l-1.372,-1.079Z" style="fill-rule:nonzero;"/></svg>