<?xml version="1.0" encoding="UTF-8" standalone="no"?><!DOCTYPE svg PUBLIC "-//W3C//DTD SVG 1.1//EN" "http://www.w3.org/Graphics/SVG/1.1/DTD/svg11.dtd"><svg width="24px" height="24px" version="1.1" xmlns="http://www.w3.org/2000/svg" xmlns:xlink="http://www.w3.org/1999/xlink" xml:space="preserve" xmlns:serif="http://www.serif.com/" style="fill-rule:evenodd;clip-rule:evenodd;stroke-linejoin:round;stroke-miterlimit:2;"><path d="M6.58,16l0.81,-0.81c-0.89,-1.19 -1.39,-2.69 -1.39,-4.19c0,-3.84 3.16,-7 7,-7c1.5,0 3,0.5 4.21,1.4c3.09,2.32 3.72,6.71 1.4,9.8c-2.32,3.09 -6.71,3.72 -9.8,1.4l-0.81,0.81l0,0.59l-4,4l-2,-2l4,-4l0.58,0Zm15.42,4l-6,0c2,-2 4,-4 6,-6l0,6Zm-9,-14c-2.76,0 -5,2.24 -5,5c0,2.76 2.24,5 5,5c2.76,0 5,-2.24 5,-5c0,-2.76 -2.24,-5 -5,-5Zm9,2l-6,-6l6,0l0,6Zm-18,0l0,-6l6,0l-6,6Z"/></svg>