<?xml version="1.0" encoding="UTF-8" standalone="no"?><!DOCTYPE svg PUBLIC "-//W3C//DTD SVG 1.1//EN" "http://www.w3.org/Graphics/SVG/1.1/DTD/svg11.dtd"><svg width="24px" height="24px" version="1.1" xmlns="http://www.w3.org/2000/svg" xmlns:xlink="http://www.w3.org/1999/xlink" xml:space="preserve" xmlns:serif="http://www.serif.com/" style="fill-rule:evenodd;clip-rule:evenodd;stroke-linejoin:round;stroke-miterlimit:1.41421;"><path d="M7.313,3.166c1.398,-0.744 2.994,-1.166 4.687,-1.166c1.693,0 3.289,0.422 4.687,1.166l0.025,0.013l0.025,0.014c0.091,0.049 0.181,0.099 0.27,0.15l0.021,0.013l0.052,0.031l0.023,0.013c0.073,0.043 0.145,0.088 0.216,0.133l0.018,0.011l0.051,0.032l0.051,0.033l0.021,0.014c0.055,0.036 0.111,0.073 0.166,0.111l0.013,0.009l0.05,0.034l0.049,0.034l0.049,0.035l0.018,0.013c0.052,0.037 0.104,0.075 0.156,0.113l0.021,0.016l0.048,0.036l0.047,0.036l0.048,0.037l0.01,0.008c0.053,0.041 0.106,0.083 0.158,0.126l0.006,0.005c0.026,0.02 0.051,0.041 0.076,0.061l0.006,0.006c0.052,0.043 0.104,0.087 0.155,0.131l0.001,0c0.024,0.022 0.049,0.044 0.074,0.065l0.007,0.007c0.024,0.021 0.048,0.042 0.072,0.064l0.006,0.005c0.05,0.045 0.099,0.09 0.147,0.136l0.004,0.003c0.023,0.022 0.047,0.045 0.07,0.067l0.007,0.007c0.024,0.022 0.047,0.045 0.07,0.067l0.005,0.005c0.047,0.047 0.094,0.094 0.141,0.141l0.005,0.005c0.022,0.023 0.045,0.046 0.067,0.069l0.007,0.008c0.022,0.023 0.045,0.047 0.067,0.07l0.003,0.004c0.046,0.048 0.091,0.097 0.136,0.147l0.005,0.006c0.022,0.024 0.043,0.048 0.064,0.072l0.007,0.007c0.021,0.025 0.043,0.05 0.064,0.074l0.034,0.04l0.034,0.04c0.022,0.025 0.043,0.05 0.064,0.076l0.006,0.007c0.02,0.024 0.041,0.049 0.061,0.074l0.005,0.007c0.043,0.052 0.085,0.105 0.126,0.158l0.008,0.01l0.037,0.048l0.036,0.047l0.036,0.048l0.017,0.022c0.037,0.051 0.075,0.102 0.111,0.154l0.014,0.019l0.035,0.049l0.034,0.049l0.034,0.05l0.01,0.015c0.037,0.054 0.074,0.108 0.11,0.163l0.014,0.022l0.033,0.051l0.032,0.051l0.012,0.019c0.036,0.057 0.072,0.115 0.107,0.173l0.008,0.013l0.03,0.052l0.031,0.052l0.013,0.022c0.043,0.074 0.085,0.149 0.126,0.225l0.009,0.016l0.029,0.053l0.013,0.025c0.744,1.398 1.166,2.994 1.166,4.687c0,1.693 -0.422,3.289 -1.166,4.687l-0.001,0.002l0,0.001l-0.012,0.022l-0.012,0.022l-0.001,0.001l-0.001,0.002c-0.049,0.091 -0.099,0.181 -0.15,0.27l-0.002,0.002l-0.001,0.002l-0.01,0.017l-0.014,0.023l-0.001,0.004l-0.002,0.003l-0.014,0.022l-0.01,0.018l-0.001,0.002l-0.002,0.003c-0.043,0.073 -0.088,0.145 -0.133,0.216l-0.002,0.004l0,0.001l-0.009,0.013l-0.015,0.025l-0.004,0.005l-0.002,0.003l-0.011,0.018l-0.012,0.019l-0.003,0.004l-0.003,0.005l-0.015,0.023l-0.009,0.014l-0.001,0.002l-0.004,0.005c-0.036,0.055 -0.073,0.111 -0.111,0.166l-0.001,0.002l-0.001,0.001l-0.007,0.01l-0.017,0.026l-0.005,0.006l-0.002,0.004l-0.01,0.014l-0.013,0.019l-0.005,0.006l-0.003,0.006l-0.013,0.018l-0.011,0.015l-0.003,0.004l-0.004,0.007l-0.017,0.023l-0.008,0.011l-0.001,0.002l-0.004,0.005c-0.037,0.052 -0.075,0.104 -0.113,0.156l-0.006,0.007l-0.001,0.002l-0.009,0.012l-0.015,0.02l-0.006,0.008l-0.004,0.005l-0.011,0.015l-0.012,0.015l-0.004,0.006l-0.006,0.007l-0.014,0.019l-0.009,0.012l-0.003,0.004l-0.006,0.008l-0.019,0.024l-0.006,0.008l-0.001,0.001l-0.001,0.001c-0.041,0.053 -0.083,0.106 -0.126,0.158l-0.003,0.004l-0.002,0.002c-0.02,0.026 -0.041,0.051 -0.061,0.076l-0.003,0.002l-0.003,0.004c-0.043,0.052 -0.087,0.104 -0.131,0.155l0,0l0,0.001c-0.022,0.024 -0.044,0.049 -0.065,0.074l-0.004,0.004l-0.003,0.003c-0.021,0.024 -0.042,0.048 -0.064,0.072l-0.002,0.002l-0.003,0.004c-0.045,0.05 -0.09,0.099 -0.136,0.147l-0.002,0.003l-0.001,0.001c-0.022,0.023 -0.045,0.047 -0.067,0.07l-0.004,0.004l-0.003,0.003c-0.022,0.024 -0.045,0.047 -0.067,0.07l-0.002,0.002l-0.003,0.003c-0.047,0.047 -0.094,0.094 -0.141,0.141l-0.003,0.003l-0.002,0.002c-0.023,0.022 -0.046,0.045 -0.069,0.067l-0.004,0.003l-0.004,0.004c-0.023,0.022 -0.047,0.045 -0.07,0.067l-0.001,0.001l-0.003,0.002c-0.048,0.046 -0.097,0.091 -0.147,0.136l-0.004,0.003l-0.002,0.002c-0.024,0.022 -0.048,0.043 -0.072,0.064l-0.003,0.003l-0.004,0.004c-0.025,0.021 -0.05,0.043 -0.074,0.064l-0.001,0.001l0,0l-0.039,0.033l-0.04,0.034l0,0l0,0c-0.025,0.022 -0.05,0.043 -0.076,0.064l-0.004,0.003l-0.003,0.003c-0.024,0.02 -0.049,0.041 -0.074,0.061l-0.003,0.002l-0.004,0.003c-0.052,0.043 -0.105,0.085 -0.158,0.126l-0.001,0.001l-0.001,0.001l-0.008,0.006l-0.023,0.018l-0.009,0.007l-0.004,0.003l-0.012,0.009l-0.018,0.014l-0.008,0.006l-0.006,0.004l-0.015,0.012l-0.015,0.011l-0.005,0.004l-0.008,0.006l-0.02,0.015l-0.011,0.008l-0.003,0.002l-0.008,0.007c-0.051,0.037 -0.102,0.075 -0.154,0.111l-0.006,0.005l-0.002,0.002l-0.011,0.007l-0.022,0.016l-0.008,0.005l-0.004,0.004l-0.015,0.01l-0.018,0.012l-0.006,0.004l-0.006,0.005l-0.019,0.013l-0.014,0.01l-0.004,0.002l-0.007,0.005l-0.025,0.017l-0.01,0.007l-0.001,0.001l-0.004,0.002c-0.054,0.037 -0.108,0.074 -0.163,0.11l-0.006,0.004l-0.003,0.001l-0.013,0.009l-0.022,0.014l-0.006,0.004l-0.005,0.003l-0.018,0.012l-0.017,0.011l-0.004,0.002l-0.006,0.004l-0.024,0.015l-0.013,0.008l-0.001,0.001l-0.005,0.003c-0.057,0.036 -0.115,0.072 -0.173,0.107l0,0l-0.001,0l-0.012,0.008l-0.028,0.016l-0.004,0.003l-0.003,0.001l-0.017,0.01l-0.022,0.013l-0.003,0.003l-0.004,0.002l-0.023,0.013l-0.017,0.01l-0.002,0.001l-0.003,0.002c-0.074,0.043 -0.149,0.085 -0.225,0.126l0,0l0,0l-0.016,0.009l-0.028,0.015l-0.002,0.001l-0.002,0.001l-0.021,0.012l-0.022,0.011l-0.001,0.001l-0.002,0.001c-1.398,0.744 -2.994,1.166 -4.687,1.166c-1.693,0 -3.289,-0.422 -4.687,-1.166l-0.002,-0.001l-0.001,0l-0.022,-0.012l-0.022,-0.012l-0.001,-0.001l-0.002,-0.001c-0.091,-0.049 -0.181,-0.099 -0.27,-0.15l-0.002,-0.002l-0.002,-0.001l-0.017,-0.01l-0.023,-0.014l-0.004,-0.001l-0.003,-0.002l-0.022,-0.014l-0.018,-0.01l-0.002,-0.001l-0.003,-0.002c-0.073,-0.043 -0.145,-0.088 -0.216,-0.133l-0.004,-0.002l-0.001,0l-0.013,-0.009l-0.025,-0.015l-0.005,-0.004l-0.003,-0.002l-0.018,-0.011l-0.019,-0.012l-0.004,-0.003l-0.005,-0.003l-0.023,-0.015l-0.014,-0.009l-0.002,-0.001l-0.005,-0.004c-0.055,-0.036 -0.111,-0.073 -0.166,-0.111l-0.002,-0.001l-0.001,-0.001l-0.01,-0.007l-0.026,-0.017l-0.006,-0.005l-0.004,-0.002l-0.014,-0.01l-0.019,-0.013l-0.006,-0.005l-0.006,-0.003l-0.018,-0.013l-0.015,-0.011l-0.004,-0.003l-0.007,-0.004l-0.023,-0.017l-0.011,-0.008l-0.002,-0.001l-0.005,-0.004c-0.052,-0.037 -0.104,-0.075 -0.156,-0.113l-0.007,-0.006l-0.002,-0.001l-0.012,-0.009l-0.02,-0.015l-0.008,-0.006l-0.005,-0.004l-0.015,-0.011l-0.015,-0.012l-0.006,-0.004l-0.007,-0.006l-0.019,-0.014l-0.012,-0.009l-0.004,-0.003l-0.008,-0.006l-0.024,-0.019l-0.008,-0.006l-0.001,-0.001l-0.001,-0.001c-0.053,-0.041 -0.106,-0.083 -0.158,-0.126l-0.004,-0.003l-0.002,-0.002c-0.026,-0.02 -0.051,-0.041 -0.076,-0.061l-0.002,-0.003l-0.004,-0.003c-0.052,-0.043 -0.104,-0.087 -0.155,-0.131l0,0l-0.001,0c-0.024,-0.022 -0.049,-0.044 -0.074,-0.065l-0.004,-0.004l-0.003,-0.003c-0.024,-0.021 -0.048,-0.042 -0.072,-0.064l-0.002,-0.002l-0.004,-0.003c-0.05,-0.045 -0.099,-0.09 -0.147,-0.136l-0.003,-0.002l-0.001,-0.001c-0.023,-0.022 -0.047,-0.045 -0.07,-0.067l-0.004,-0.004l-0.003,-0.003c-0.024,-0.022 -0.047,-0.045 -0.07,-0.067l-0.002,-0.002l-0.003,-0.003c-0.047,-0.047 -0.094,-0.094 -0.141,-0.141l-0.003,-0.003l-0.002,-0.002c-0.022,-0.023 -0.045,-0.046 -0.067,-0.069l-0.003,-0.004l-0.004,-0.004c-0.022,-0.023 -0.045,-0.047 -0.067,-0.07l-0.001,-0.001l-0.002,-0.003c-0.046,-0.048 -0.091,-0.097 -0.136,-0.147l-0.003,-0.004l-0.002,-0.002c-0.022,-0.024 -0.043,-0.048 -0.064,-0.072l-0.003,-0.003l-0.004,-0.004c-0.021,-0.025 -0.043,-0.05 -0.064,-0.074l-0.001,-0.001l0,0l-0.033,-0.039l-0.034,-0.04l0,0l0,0c-0.022,-0.025 -0.043,-0.05 -0.064,-0.076l-0.003,-0.004l-0.003,-0.003c-0.02,-0.024 -0.041,-0.049 -0.061,-0.074l-0.002,-0.003l-0.003,-0.004c-0.043,-0.052 -0.085,-0.105 -0.126,-0.158l-0.001,-0.001l-0.001,-0.001l-0.006,-0.008l-0.018,-0.023l-0.007,-0.009l-0.003,-0.004l-0.009,-0.012l-0.014,-0.018l-0.006,-0.008l-0.004,-0.006l-0.012,-0.015l-0.011,-0.015l-0.004,-0.005l-0.006,-0.008l-0.015,-0.02l-0.008,-0.011l-0.002,-0.003l-0.007,-0.008c-0.037,-0.051 -0.075,-0.102 -0.111,-0.154l-0.005,-0.006l-0.002,-0.002l-0.007,-0.011l-0.016,-0.022l-0.005,-0.008l-0.004,-0.004l-0.01,-0.015l-0.012,-0.018l-0.004,-0.006l-0.005,-0.006l-0.013,-0.019l-0.01,-0.014l-0.002,-0.004l-0.005,-0.007l-0.017,-0.025l-0.007,-0.01l-0.001,-0.001l-0.002,-0.004c-0.037,-0.054 -0.074,-0.108 -0.11,-0.163l-0.004,-0.006l-0.001,-0.003l-0.009,-0.013l-0.014,-0.022l-0.004,-0.006l-0.003,-0.005l-0.012,-0.018l-0.011,-0.017l-0.002,-0.004l-0.004,-0.006l-0.015,-0.024l-0.008,-0.013l-0.001,-0.001l-0.003,-0.005c-0.036,-0.057 -0.072,-0.115 -0.107,-0.173l0,0l0,-0.001l-0.008,-0.012l-0.016,-0.028l-0.003,-0.004l-0.001,-0.003l-0.01,-0.017l-0.013,-0.022l-0.003,-0.003l-0.002,-0.004l-0.013,-0.023l-0.01,-0.017l-0.001,-0.002l-0.002,-0.003c-0.043,-0.074 -0.085,-0.149 -0.126,-0.225l0,0l0,0l-0.009,-0.016l-0.015,-0.028l-0.001,-0.002l-0.001,-0.002l-0.012,-0.021l-0.011,-0.022l-0.001,-0.001l-0.001,-0.002c-0.744,-1.398 -1.166,-2.994 -1.166,-4.687c0,-1.563 0.359,-3.043 1,-4.361c0.053,-0.11 0.109,-0.219 0.166,-0.326l0.001,-0.002l0,-0.001l0.012,-0.022l0.012,-0.022l0.001,-0.001l0.001,-0.002c0.049,-0.091 0.099,-0.181 0.15,-0.27l0.002,-0.002l0.001,-0.002l0.01,-0.017l0.014,-0.023l0.001,-0.004l0.002,-0.003l0.014,-0.022l0.01,-0.018l0.001,-0.002l0.002,-0.003c0.043,-0.073 0.088,-0.145 0.133,-0.216l0.002,-0.004l0,-0.001l0.009,-0.013l0.015,-0.025l0.004,-0.005l0.002,-0.003l0.011,-0.018l0.012,-0.019l0.003,-0.004l0.003,-0.005l0.015,-0.023l0.009,-0.014l0.001,-0.002l0.004,-0.005c0.036,-0.055 0.073,-0.111 0.111,-0.166l0.001,-0.002l0.001,-0.001l0.007,-0.01l0.017,-0.026l0.005,-0.006l0.002,-0.004l0.01,-0.014l0.013,-0.019l0.005,-0.006l0.003,-0.006l0.013,-0.018l0.011,-0.015l0.003,-0.004l0.004,-0.007l0.017,-0.023l0.008,-0.011l0.001,-0.002l0.004,-0.005c0.037,-0.052 0.075,-0.104 0.113,-0.156l0.006,-0.007l0.001,-0.002l0.009,-0.012l0.015,-0.02l0.006,-0.008l0.004,-0.005l0.011,-0.015l0.012,-0.015l0.004,-0.006l0.006,-0.007l0.014,-0.019l0.009,-0.012l0.003,-0.004l0.006,-0.008l0.019,-0.024l0.006,-0.008l0.001,-0.001l0.001,-0.001c0.041,-0.053 0.083,-0.106 0.126,-0.158l0.003,-0.004l0.002,-0.002c0.02,-0.026 0.041,-0.051 0.061,-0.076l0.003,-0.002l0.003,-0.004c0.043,-0.052 0.087,-0.104 0.131,-0.155l0,0l0,-0.001c0.022,-0.024 0.044,-0.049 0.065,-0.074l0.004,-0.004l0.003,-0.003c0.021,-0.024 0.042,-0.048 0.064,-0.072l0.002,-0.002l0.003,-0.004c0.045,-0.05 0.09,-0.099 0.136,-0.147l0.002,-0.003l0.001,-0.001c0.022,-0.023 0.045,-0.047 0.067,-0.07l0.004,-0.004l0.003,-0.003c0.022,-0.024 0.045,-0.047 0.067,-0.07l0.002,-0.002l0.003,-0.003c0.047,-0.047 0.094,-0.094 0.141,-0.141l0.003,-0.003l0.002,-0.002c0.023,-0.022 0.046,-0.045 0.069,-0.067l0.004,-0.003l0.004,-0.004c0.023,-0.022 0.047,-0.045 0.07,-0.067l0.001,-0.001l0.003,-0.002c0.048,-0.046 0.097,-0.091 0.147,-0.136l0.004,-0.003l0.002,-0.002c0.024,-0.022 0.048,-0.043 0.072,-0.064l0.003,-0.003l0.004,-0.004c0.025,-0.021 0.05,-0.043 0.074,-0.064l0.001,-0.001l0,0l0.039,-0.033l0.04,-0.034l0,0l0,0c0.025,-0.022 0.05,-0.043 0.076,-0.064l0.004,-0.003l0.003,-0.003c0.024,-0.02 0.049,-0.041 0.074,-0.061l0.003,-0.002l0.004,-0.003c0.052,-0.043 0.105,-0.085 0.158,-0.126l0.001,-0.001l0.001,-0.001l0.008,-0.006l0.023,-0.018l0.009,-0.007l0.004,-0.003l0.012,-0.009l0.018,-0.014l0.008,-0.006l0.006,-0.004l0.015,-0.012l0.015,-0.011l0.005,-0.004l0.008,-0.006l0.02,-0.015l0.011,-0.008l0.003,-0.002l0.008,-0.007c0.051,-0.037 0.102,-0.075 0.154,-0.111l0.006,-0.005l0.002,-0.002l0.011,-0.007l0.022,-0.016l0.008,-0.005l0.004,-0.004l0.015,-0.01l0.018,-0.012l0.006,-0.004l0.006,-0.005l0.019,-0.013l0.014,-0.01l0.004,-0.002l0.007,-0.005l0.025,-0.017l0.01,-0.007l0.001,-0.001l0.004,-0.002c0.054,-0.037 0.108,-0.074 0.163,-0.11l0.006,-0.004l0.003,-0.001l0.013,-0.009l0.022,-0.014l0.006,-0.004l0.005,-0.003l0.018,-0.012l0.017,-0.011l0.004,-0.002l0.006,-0.004l0.024,-0.015l0.013,-0.008l0.001,-0.001l0.005,-0.003c0.057,-0.036 0.115,-0.072 0.173,-0.107l0,0l0.001,0l0.012,-0.008l0.028,-0.016l0.004,-0.003l0.003,-0.001l0.017,-0.01l0.022,-0.013l0.003,-0.003l0.004,-0.002l0.023,-0.013l0.017,-0.01l0.002,-0.001l0.003,-0.002c0.074,-0.043 0.149,-0.085 0.225,-0.126l0,0l0,0l0.016,-0.009l0.028,-0.015l0.002,-0.001l0.002,-0.001l0.021,-0.012l0.022,-0.011l0.001,-0.001l0.002,-0.001Zm7.687,16.252l0,-4.418l-6,0l0,4.418c0.927,0.375 1.939,0.582 3,0.582c1.061,0 2.073,-0.207 3,-0.582Zm0,-14.836c-0.927,-0.375 -1.939,-0.582 -3,-0.582c-1.061,0 -2.073,0.207 -3,0.582l0,4.418l-4.418,0c-0.375,0.927 -0.582,1.939 -0.582,3c0,1.061 0.207,2.073 0.582,3l4.418,0l0,-6l6,0l0,6l4.418,0c0.375,-0.927 0.582,-1.939 0.582,-3c0,-1.061 -0.207,-2.073 -0.582,-3l-4.418,0l0,-4.418Z"/></svg>