<?xml version="1.0" encoding="UTF-8" standalone="no"?><!DOCTYPE svg PUBLIC "-//W3C//DTD SVG 1.1//EN" "http://www.w3.org/Graphics/SVG/1.1/DTD/svg11.dtd"><svg width="24px" height="24px" version="1.1" xmlns="http://www.w3.org/2000/svg" xmlns:xlink="http://www.w3.org/1999/xlink" xml:space="preserve" xmlns:serif="http://www.serif.com/" style="fill-rule:evenodd;clip-rule:evenodd;stroke-linejoin:round;stroke-miterlimit:1.41421;"><path d="M16.019,20.242c0.641,0 1.16,0.52 1.16,1.161c0,0.64 -0.519,1.16 -1.16,1.16c-0.64,0 -1.16,-0.52 -1.16,-1.16c0,-0.641 0.52,-1.161 1.16,-1.161Zm-9.436,-1.103c0.64,0 1.16,0.52 1.16,1.16c0,0.64 -0.52,1.16 -1.16,1.16c-0.641,0 -1.16,-0.52 -1.16,-1.16c0,-0.64 0.519,-1.16 1.16,-1.16Zm5.632,-0.057c0.641,0 1.16,0.52 1.16,1.16c0,0.641 -0.519,1.161 -1.16,1.161c-0.64,0 -1.16,-0.52 -1.16,-1.161c0,-0.64 0.52,-1.16 1.16,-1.16Zm5.77,-1.316c0.64,0 1.16,0.52 1.16,1.16c0,0.641 -0.52,1.161 -1.16,1.161c-0.641,0 -1.16,-0.52 -1.16,-1.161c0,-0.64 0.519,-1.16 1.16,-1.16Zm-5.733,-13.214c-0.308,-0.209 -0.511,-0.562 -0.511,-0.962c0,-0.64 0.52,-1.16 1.16,-1.16c0.641,0 1.16,0.52 1.16,1.16c0,0.068 -0.005,0.134 -0.017,0.198c0.309,0.209 0.512,0.562 0.512,0.962c0,0.57 -0.412,1.045 -0.954,1.142c0.389,0.161 0.673,0.527 0.713,0.964c0.522,0.114 0.913,0.578 0.913,1.134c0,0.028 -0.001,0.056 -0.003,0.084c0.134,-0.054 0.281,-0.084 0.434,-0.084c0.019,0 0.038,0 0.057,0.001l0,-0.001c0,-0.231 0.068,-0.446 0.184,-0.627c-0.06,0.009 -0.121,0.014 -0.184,0.014c-0.64,0 -1.16,-0.52 -1.16,-1.16c0,-0.64 0.52,-1.16 1.16,-1.16c0.64,0 1.16,0.52 1.16,1.16c0,0.231 -0.068,0.447 -0.184,0.627c0.06,-0.009 0.121,-0.014 0.184,-0.014c0.64,0 1.16,0.52 1.16,1.16c0,0.64 -0.52,1.16 -1.16,1.16c-0.019,0 -0.038,0 -0.057,-0.001l0,0.001c0,0.363 -0.166,0.686 -0.427,0.899c0.303,0.21 0.501,0.559 0.501,0.955c0,0.64 -0.52,1.16 -1.16,1.16c-0.004,0 -0.008,0 -0.012,0c-0.012,0.08 -0.032,0.158 -0.059,0.233c0.408,0.058 0.747,0.329 0.903,0.697c0.2,-0.164 0.455,-0.262 0.733,-0.262c0.64,0 1.16,0.52 1.16,1.161c0,0.64 -0.52,1.16 -1.16,1.16c-0.083,0 -0.164,-0.009 -0.242,-0.026c0.242,0.213 0.395,0.525 0.395,0.872c0,0.64 -0.52,1.16 -1.16,1.16c-0.337,0 -0.64,-0.144 -0.852,-0.373c-0.135,0.49 -0.585,0.851 -1.118,0.851c-0.077,0 -0.153,-0.008 -0.225,-0.022c0.057,0.137 0.088,0.288 0.088,0.445c0,0.641 -0.52,1.161 -1.16,1.161c-0.64,0 -1.16,-0.52 -1.16,-1.161c0,-0.64 0.52,-1.16 1.16,-1.16c0.077,0 0.153,0.008 0.225,0.022c-0.057,-0.137 -0.088,-0.288 -0.088,-0.445c0,-0.023 0,-0.045 0.002,-0.067c-0.211,0.296 -0.557,0.49 -0.948,0.49c-0.304,0 -0.582,-0.117 -0.789,-0.309c-0.054,0.13 -0.13,0.248 -0.225,0.349c0.01,0.062 0.015,0.126 0.015,0.191c0,0.64 -0.519,1.16 -1.16,1.16c-0.64,0 -1.16,-0.52 -1.16,-1.16c0,-0.043 0.002,-0.086 0.007,-0.128c-0.05,0.007 -0.101,0.01 -0.152,0.01c-0.419,0 -0.787,-0.223 -0.991,-0.556c-0.184,0.398 -0.587,0.674 -1.053,0.674c-0.641,0 -1.161,-0.52 -1.161,-1.16c0,-0.118 0.018,-0.231 0.051,-0.338c-0.057,0.008 -0.115,0.013 -0.174,0.013c-0.641,0 -1.161,-0.52 -1.161,-1.161c0,-0.64 0.52,-1.16 1.161,-1.16c0.64,0 1.16,0.52 1.16,1.16c0,0.118 -0.018,0.232 -0.05,0.339c0.056,-0.009 0.114,-0.013 0.174,-0.013l0,-0.008c0.003,-0.578 0.43,-1.056 0.986,-1.139c-0.234,-0.213 -0.381,-0.519 -0.381,-0.86c0,-0.255 0.083,-0.49 0.222,-0.682c-0.074,0.021 -0.15,0.034 -0.229,0.04c-0.066,0.578 -0.557,1.028 -1.153,1.028c-0.64,0 -1.16,-0.52 -1.16,-1.16c0,-0.612 0.476,-1.115 1.078,-1.157c0.041,-0.37 0.257,-0.687 0.563,-0.868c-0.231,-0.212 -0.376,-0.517 -0.376,-0.855c0,-0.145 0.027,-0.284 0.076,-0.412c-0.132,0.071 -0.279,0.118 -0.435,0.133c0.221,0.212 0.359,0.51 0.359,0.84c0,0.64 -0.52,1.16 -1.16,1.16c-0.197,0 -0.383,-0.05 -0.546,-0.137c0.269,0.213 0.441,0.542 0.441,0.91c0,0.641 -0.52,1.16 -1.16,1.16c-0.641,0 -1.16,-0.519 -1.16,-1.16c0,-0.64 0.519,-1.16 1.16,-1.16c0.197,0 0.383,0.049 0.545,0.136c-0.268,-0.212 -0.44,-0.541 -0.44,-0.909c0,-0.601 0.458,-1.096 1.043,-1.155c-0.221,-0.211 -0.359,-0.509 -0.359,-0.839c0,-0.54 0.369,-0.994 0.869,-1.123c-0.121,-0.183 -0.191,-0.403 -0.191,-0.639c0,-0.64 0.52,-1.16 1.16,-1.16c0.64,0 1.16,0.52 1.16,1.16c0,0.54 -0.37,0.995 -0.869,1.124c0.043,0.065 0.08,0.135 0.109,0.209c0.199,-0.159 0.451,-0.255 0.726,-0.255c0.068,0 0.136,0.006 0.201,0.018c-0.013,-0.072 -0.021,-0.146 -0.021,-0.221c0,-0.64 0.52,-1.16 1.161,-1.16c0.382,0 0.721,0.185 0.932,0.47c0.04,-0.137 0.104,-0.263 0.188,-0.374c-0.064,0.011 -0.131,0.016 -0.198,0.016c-0.641,0 -1.161,-0.519 -1.161,-1.16c0,-0.64 0.52,-1.16 1.161,-1.16c0.64,0 1.16,0.52 1.16,1.16c0,0.262 -0.087,0.504 -0.234,0.699c0.064,-0.011 0.131,-0.017 0.198,-0.017c0.629,0 1.141,0.5 1.16,1.124c0.163,-0.312 0.464,-0.541 0.822,-0.605c-0.421,-0.174 -0.718,-0.589 -0.718,-1.073c0,-0.067 0.005,-0.134 0.016,-0.198Zm-8.455,10.769c0.64,0 1.16,0.52 1.16,1.16c0,0.641 -0.52,1.161 -1.16,1.161c-0.64,0 -1.16,-0.52 -1.16,-1.161c0,-0.64 0.52,-1.16 1.16,-1.16Zm10.25,-7.268l-6.626,1.157l1.157,6.626l6.626,-1.157l-1.157,-6.626Zm7.793,4.636c0.64,0 1.16,0.52 1.16,1.16c0,0.641 -0.52,1.16 -1.16,1.16c-0.64,0 -1.16,-0.519 -1.16,-1.16c0,-0.64 0.52,-1.16 1.16,-1.16Zm-5.611,1.755c-0.122,0.1 -0.265,0.175 -0.421,0.219c0.025,0.083 0.042,0.17 0.049,0.259c0.134,-0.054 0.28,-0.084 0.434,-0.084c0.082,0 0.163,0.009 0.241,0.026c-0.13,-0.115 -0.234,-0.258 -0.303,-0.42Zm2.493,-4.379c0.641,0 1.16,0.52 1.16,1.16c0,0.64 -0.519,1.16 -1.16,1.16c-0.64,0 -1.16,-0.52 -1.16,-1.16c0,-0.64 0.52,-1.16 1.16,-1.16Zm-16.562,-1.731c0.64,0 1.16,0.52 1.16,1.16c0,0.64 -0.52,1.16 -1.16,1.16c-0.64,0 -1.16,-0.52 -1.16,-1.16c0,-0.64 0.52,-1.16 1.16,-1.16Zm7.88,-1.18c-0.051,0.175 -0.142,0.333 -0.262,0.463c0.032,0.033 0.063,0.069 0.091,0.106c0.114,-0.137 0.258,-0.247 0.423,-0.32c-0.096,-0.07 -0.181,-0.154 -0.252,-0.249Zm-7.02,-5.178c0.64,0 1.16,0.519 1.16,1.16c0,0.64 -0.52,1.16 -1.16,1.16c-0.641,0 -1.161,-0.52 -1.161,-1.16c0,-0.641 0.52,-1.16 1.161,-1.16Zm14.6,-0.094c0.64,0 1.16,0.52 1.16,1.16c0,0.64 -0.52,1.16 -1.16,1.16c-0.641,0 -1.161,-0.52 -1.161,-1.16c0,-0.64 0.52,-1.16 1.161,-1.16Zm-9.351,-0.382c0.64,0 1.16,0.52 1.16,1.16c0,0.64 -0.52,1.16 -1.16,1.16c-0.641,0 -1.16,-0.52 -1.16,-1.16c0,-0.64 0.519,-1.16 1.16,-1.16Z"/></svg>