<?xml version="1.0" encoding="UTF-8" standalone="no"?><!DOCTYPE svg PUBLIC "-//W3C//DTD SVG 1.1//EN" "http://www.w3.org/Graphics/SVG/1.1/DTD/svg11.dtd"><svg width="100%" height="100%" viewBox="0 0 200 200" version="1.1" xmlns="http://www.w3.org/2000/svg" xmlns:xlink="http://www.w3.org/1999/xlink" xml:space="preserve" xmlns:serif="http://www.serif.com/" style="fill-rule:evenodd;clip-rule:evenodd;stroke-linejoin:round;stroke-miterlimit:1.41421;"><g id="Layer-1" serif:id="Layer 1"><path d="M114.477,51.36l-59.313,7.756l8.125,51.04l12.483,38.484l62.564,-17.801l6.5,-55.546l-30.359,-23.933Z" style="fill:#e92b2f;fill-rule:nonzero;"/><path d="M91.136,110.009l-17.432,3.766l3.324,9.857l19.057,-4.612l-4.949,-9.011Z" style="fill:#fff;fill-rule:nonzero;"/><path d="M108.716,89.105l-18.777,3.836l5.186,8.647l20.387,-4.432l-6.796,-8.051Zm-41.216,-1.478l3.25,9.234l37.966,-7.756l-6.057,-7.608l-35.159,6.13Z" style="fill:#fff;"/><path d="M137.819,76.511l-16.325,-12.668l-8.715,-6.869l-51.41,6.648l2.883,8.261l38.048,-5.344l13.581,13.85l21.938,-3.878Z" style="fill:#fff;fill-rule:nonzero;"/></g></svg>