<?xml version="1.0" encoding="UTF-8" standalone="no"?>
<!DOCTYPE svg PUBLIC "-//W3C//DTD SVG 1.1//EN" "http://www.w3.org/Graphics/SVG/1.1/DTD/svg11.dtd">
<svg width="24px" height="24px" version="1.1" xmlns="http://www.w3.org/2000/svg" xmlns:xlink="http://www.w3.org/1999/xlink" xml:space="preserve" xmlns:serif="http://www.serif.com/" style="fill-rule:evenodd;clip-rule:evenodd;stroke-linejoin:round;stroke-miterlimit:2;">
    <path d="M22.54,16.88l-2.13,2.12l2.13,2.12l-1.42,1.42l-2.12,-2.13l-2.12,2.13l-1.41,-1.42l2.12,-2.12l-2.12,-2.12l1.41,-1.41l2.12,2.12l2.12,-2.13l1.42,1.42Zm-8.53,2.12l-6.01,0l-6,-11l2,0l3,4l3,-4l7,0l0.375,1l2.625,-0c1.105,0 2,0.895 2,2c0,0.941 0,2.059 0,3c-0,0.308 -0.07,0.6 -0.194,0.861c-0.799,-0.544 -1.763,-0.861 -2.801,-0.861c-2.757,0 -4.995,2.24 -4.995,5Zm5.24,-5l0.75,0l0,-3l-1.875,0l1.125,3Zm-8.25,-9l5,0l-0,2l-5,0l0,-2Z" style="fill-rule:nonzero;"/>
</svg>
