<?xml version="1.0" encoding="UTF-8" standalone="no"?><!DOCTYPE svg PUBLIC "-//W3C//DTD SVG 1.1//EN" "http://www.w3.org/Graphics/SVG/1.1/DTD/svg11.dtd"><svg width="24px" height="24px" version="1.1" xmlns="http://www.w3.org/2000/svg" xmlns:xlink="http://www.w3.org/1999/xlink" xml:space="preserve" xmlns:serif="http://www.serif.com/" style="fill-rule:evenodd;clip-rule:evenodd;stroke-linejoin:round;stroke-miterlimit:2;"><path id="Baked-small" serif:id="Baked small" d="M3,9.705l0,-3.602c0,-0.435 0.267,-0.823 0.667,-0.968l8.5,-3.077c0.216,-0.077 0.45,-0.077 0.666,0l8.5,3.077c0.4,0.145 0.667,0.533 0.667,0.968l0,11.794c0,0.435 -0.267,0.823 -0.667,0.968l-1.5,0.543c-0.216,0.078 -0.45,0.078 -0.666,0l-4.167,-1.509l0,2.532c0,0.435 -0.267,0.823 -0.667,0.968l-1.5,0.543c-0.216,0.077 -0.45,0.077 -0.666,0l-3,-1.086c-0.4,-0.145 -0.667,-0.533 -0.667,-0.968l0,-0.36l-1.167,0.423c-0.216,0.078 -0.45,0.078 -0.666,0l-3,-1.086c-0.4,-0.145 -0.667,-0.533 -0.667,-0.968l0,-5.851l-1.583,-0.573c-0.099,-0.036 -0.166,-0.131 -0.167,-0.239c-0.001,-0.107 0.063,-0.204 0.16,-0.243c0.679,-0.267 1.208,-0.746 1.59,-1.286Zm9.75,-0.344l0,11.523l1.25,-0.453l0,-5.098c0,-3.474 2.75,-6.138 2.75,-6.138c0,0 2.75,0.673 2.75,4.147l0,5.098l1.5,-0.543l0,-11.523l-8.25,2.987Zm-8.75,3.047l0,5.489l3,1.086l0,-3.137c0,-0.9 0.56,-1.429 1.25,-1.179c0.086,0.031 0.169,0.073 0.25,0.123l0.007,0.005c0.567,0.359 0.993,1.17 0.993,1.956l0,3.137l2.75,0.996l0,-7.119c-0.722,0.262 -1.445,0.523 -2.167,0.784c-0.055,0.02 -0.113,0.019 -0.167,0l-5.916,-2.141Zm6.597,-2.107c-0.144,1.035 -0.829,2.443 -2.075,3.2l1.472,0.533c1.408,-0.603 2.149,-2.119 2.245,-3.138l-1.642,-0.595Zm-4.25,-1.539c-0.144,1.035 -0.829,2.443 -2.075,3.2l1.472,0.533c1.408,-0.602 2.149,-2.119 2.245,-3.138l-1.642,-0.595Zm-2.347,-2.388l0,1.011l0.003,0c0.027,0 0.054,0.005 0.08,0.014l8.167,2.957l0,-0.995l-8.25,-2.987Zm0.376,-0.407l8.124,2.941l8.124,-2.941l-8.124,-2.941l-8.124,2.941Z" style="fill:#56c142;"/></svg>