<?xml version="1.0" encoding="UTF-8" standalone="no"?>
<!DOCTYPE svg PUBLIC "-//W3C//DTD SVG 1.1//EN" "http://www.w3.org/Graphics/SVG/1.1/DTD/svg11.dtd">
<svg width="24px" height="24px" version="1.1" xmlns="http://www.w3.org/2000/svg" xmlns:xlink="http://www.w3.org/1999/xlink" xml:space="preserve" xmlns:serif="http://www.serif.com/" style="fill-rule:evenodd;clip-rule:evenodd;stroke-linejoin:round;stroke-miterlimit:2;">
    <path d="M8.183,6.047c0.405,-1.134 1.29,-2.065 2.473,-2.553c0.988,-0.406 2.019,-0.831 2.874,-1.183c1.232,-0.507 2.634,-0.368 3.742,0.371c0.574,0.382 1.22,0.812 1.831,1.22c1.432,0.954 2.092,2.718 1.641,4.378c-0.438,1.61 -0.981,3.607 -1.388,5.103c-0.366,1.343 -1.446,2.372 -2.805,2.672l-2.058,0.454c0.338,-0.93 0.507,-1.794 0.507,-2.509c-0,-4.129 -2.755,-7.745 -6.817,-7.953Z"/>
    <path d="M10.33,20.47c-0.508,0.953 -1.5,1.549 -2.58,1.549c-1.081,0 -2.742,-2.066 -3.25,-3.019c-1.528,-2.275 -2.5,-4.85 -2.5,-6.5c0,-3.157 2.576,-4.5 5.75,-4.5c3.174,0 5.25,2.843 5.25,6c-0,1.65 -1.141,4.196 -2.67,6.47Z"/>
</svg>
