<?xml version="1.0" encoding="UTF-8" standalone="no"?><!DOCTYPE svg PUBLIC "-//W3C//DTD SVG 1.1//EN" "http://www.w3.org/Graphics/SVG/1.1/DTD/svg11.dtd"><svg width="24px" height="24px" version="1.1" xmlns="http://www.w3.org/2000/svg" xmlns:xlink="http://www.w3.org/1999/xlink" xml:space="preserve" xmlns:serif="http://www.serif.com/" style="fill-rule:evenodd;clip-rule:evenodd;stroke-linejoin:round;stroke-miterlimit:1.41421;"><path d="M19,17l3,0l0,2l-3,0l0,3l-2,0l0,-3l-3,0l0,-2l3,0l0,-3l2,0l0,3Zm-12,-3c-1.66,0 -3,1.34 -3,3c0,1.31 -1.16,2 -2,2c0.92,1.22 2.49,2 4,2c2.21,0 4,-1.79 4,-4c0,-1.66 -1.34,-3 -3,-3Zm13.71,-9.37l-1.34,-1.34c-0.39,-0.39 -1.02,-0.39 -1.41,0l-8.96,8.96l2.75,2.75l8.96,-8.96c0.39,-0.39 0.39,-1.02 0,-1.41Z"/></svg>