<?xml version="1.0" encoding="UTF-8" standalone="no"?><!DOCTYPE svg PUBLIC "-//W3C//DTD SVG 1.1//EN" "http://www.w3.org/Graphics/SVG/1.1/DTD/svg11.dtd"><svg width="24px" height="24px" version="1.1" xmlns="http://www.w3.org/2000/svg" xmlns:xlink="http://www.w3.org/1999/xlink" xml:space="preserve" xmlns:serif="http://www.serif.com/" style="fill-rule:evenodd;clip-rule:evenodd;stroke-linejoin:round;stroke-miterlimit:1.41421;"><path d="M21,24l-2,0l0,-3l-3,0l0,-2l3,0l0,-3l2,0l0,3l3,0l0,2l-3,0l0,3Zm-8,-6.5l0,1.788l1.156,-0.65c-0.102,0.438 -0.156,0.894 -0.156,1.362c0,0.332 0.027,0.657 0.079,0.974l-1.513,0.85c-0.161,0.111 -0.356,0.176 -0.566,0.176c-0.21,0 -0.405,-0.065 -0.566,-0.176l-3.168,-1.779l0.984,-1.742l1.75,0.984l0,-1.787l2,0Zm-8,-1.585l1.635,0.918l-0.984,1.742l-2.124,-1.194c-0.314,-0.168 -0.527,-0.5 -0.527,-0.881l0,-2.5l2,0l0,1.915Zm8.73,-6.038l0.979,1.743l-1.709,0.961l0,1.919l-2,0l0,-1.919l-1.597,-0.898l0.984,-1.741l1.614,0.907l1.729,-0.972Zm3.502,-5.079l3.241,1.821c0.314,0.168 0.527,0.5 0.527,0.881l0,3.5l-2,0l0,-1.791l-1.675,0.941l-0.98,-1.743l1.614,-0.907l-1.71,-0.961l0.983,-1.741Zm-10.541,0.043l0.98,1.743l-1.63,0.916l1.73,0.972l-0.983,1.741l-1.788,-1.004l0,1.791l-2,0l0,-3.5c0,-0.381 0.213,-0.713 0.527,-0.881l3.164,-1.778Zm2.616,-1.47l2.127,-1.195c0.161,-0.111 0.356,-0.176 0.566,-0.176c0.21,0 0.405,0.065 0.566,0.176l2.051,1.152l-0.984,1.741l-1.632,-0.918l-1.714,0.963l-0.98,-1.743Z"/></svg>