<?xml version="1.0" encoding="UTF-8" standalone="no"?><!DOCTYPE svg PUBLIC "-//W3C//DTD SVG 1.1//EN" "http://www.w3.org/Graphics/SVG/1.1/DTD/svg11.dtd"><svg width="24px" height="24px" version="1.1" xmlns="http://www.w3.org/2000/svg" xmlns:xlink="http://www.w3.org/1999/xlink" xml:space="preserve" xmlns:serif="http://www.serif.com/" style="fill-rule:evenodd;clip-rule:evenodd;stroke-linejoin:round;stroke-miterlimit:1.41421;"><path d="M13.132,21.506l-0.566,0.318c-0.161,0.111 -0.356,0.176 -0.566,0.176c-0.21,0 -0.405,-0.065 -0.566,-0.176l-7.907,-4.443c-0.314,-0.168 -0.527,-0.5 -0.527,-0.881l0,-9c0,-0.381 0.213,-0.713 0.527,-0.881l7.907,-4.443c0.161,-0.111 0.356,-0.176 0.566,-0.176c0.21,0 0.405,0.065 0.566,0.176l7.907,4.443c0.314,0.168 0.527,0.5 0.527,0.881l0,5.304c-0.607,-0.352 -1.282,-0.6 -2,-0.721l0,-2.874l-6,3.372l0,2.103c-0.632,0.95 -1,2.09 -1,3.316c0,1.309 0.42,2.52 1.132,3.506Zm5.868,-4.506l3,0l0,2l-3,0l0,3l-2,0l0,-3l-3,0l0,-2l3,0l0,-3l2,0l0,3Zm-14,-1.085l6,3.372l0,-6.706l-6,-3.372l0,6.706Zm7.001,-11.764l-5.96,3.349l5.96,3.349l5.958,-3.349l-5.958,-3.349Z"/></svg>