<?xml version="1.0" encoding="UTF-8" standalone="no"?><!DOCTYPE svg PUBLIC "-//W3C//DTD SVG 1.1//EN" "http://www.w3.org/Graphics/SVG/1.1/DTD/svg11.dtd"><svg width="24px" height="24px" version="1.1" xmlns="http://www.w3.org/2000/svg" xmlns:xlink="http://www.w3.org/1999/xlink" xml:space="preserve" xmlns:serif="http://www.serif.com/" style="fill-rule:evenodd;clip-rule:evenodd;stroke-linejoin:round;stroke-miterlimit:1.41421;"><path d="M13.506,21.973c-1.566,0.294 -3.402,-0.565 -3.598,-2.301c-0.345,-3.069 4.833,-8.679 3.748,-9.53c-1.294,-1.016 -2.505,0.311 -3.789,2.444c-1.27,2.112 -2.344,4.468 -5.133,3.88c-0.962,-0.202 -1.922,-0.9 -2.001,-1.992c-0.22,-3.037 4.87,-6.279 5.484,-9.185c0.126,-0.598 -0.119,-1.451 -1.717,-0.789c-1.362,0.564 -2.797,2.211 -2.797,2.211l-1.406,-1.422c1.47,-1.453 3.217,-2.974 5.189,-2.926c1.109,0.059 2.114,0.886 2.341,1.995c0.615,2.997 -1.596,4.496 -4.177,7.5c-0.97,1.129 -1.362,2.697 0,2.673c2.459,-0.042 2.699,-7.346 8.006,-6.519c1.823,0.284 2.386,2.019 1.321,4.805c-1.78,1.041 -2.977,2.974 -2.977,5.183c0,1.523 0.569,2.915 1.506,3.973Zm5.494,-4.973l3,0l0,2l-3,0l0,3l-2,0l0,-3l-3,0l0,-2l3,0l0,-3l2,0l0,3Zm-0.037,-4.923c0.239,-1.147 0.156,-1.922 0.037,-3.077l2,0.5c0.173,1.498 0.17,3.012 -0.073,3.262c-0.599,-0.335 -1.261,-0.571 -1.964,-0.685Z"/></svg>