<?xml version="1.0" encoding="UTF-8" standalone="no"?><!DOCTYPE svg PUBLIC "-//W3C//DTD SVG 1.1//EN" "http://www.w3.org/Graphics/SVG/1.1/DTD/svg11.dtd"><svg width="24px" height="24px" version="1.1" xmlns="http://www.w3.org/2000/svg" xmlns:xlink="http://www.w3.org/1999/xlink" xml:space="preserve" xmlns:serif="http://www.serif.com/" style="fill-rule:evenodd;clip-rule:evenodd;stroke-linejoin:round;stroke-miterlimit:1.41421;"><path d="M21,19l3,0l0,2l-3,0l0,3l-2,0l0,-3l-3,0l0,-2l3,0l0,-3l2,0l0,3Zm-13.514,-16.637l0.051,0.004l0.052,0.004l0.052,0.006l0.051,0.006l0.051,0.008l0.051,0.009l0.051,0.01l0.05,0.011l0.05,0.011l0.05,0.013l0.05,0.014l0.049,0.015l0.049,0.016l0.048,0.017l0.048,0.018l0.048,0.019l0.047,0.02l0.047,0.021l0.047,0.021l0.046,0.023l0.045,0.023l0.045,0.025l0.045,0.025l0.044,0.026l0.044,0.027l0.043,0.028l0.042,0.029l0.042,0.029l0.042,0.03l0.04,0.032l0.04,0.031l0.04,0.033l0.039,0.034l0.038,0.034l0.038,0.035l0.036,0.035l0.037,0.037l0.035,0.037l0.035,0.038l0.034,0.038l0.033,0.04l0.032,0.039l0.032,0.041l0.031,0.041l0.03,0.042l0.029,0.042l0.028,0.043l0.027,0.044l0.027,0.044l0.025,0.045l0.025,0.045l0.024,0.046l0.023,0.047l0.021,0.047l0.021,0.047l0.02,0.048l0.019,0.049l0.018,0.049l0.017,0.049l0.015,0.05l0.015,0.051l0.014,0.051l0.012,0.051l0.011,0.052l0.009,0.045l0.008,0.045l0.007,0.045l0.006,0.046l0.005,0.046l0.004,0.046l0.002,0.046l0.002,0.047l0.001,0.047l0.001,0.047l-0.001,0.047l-0.002,0.047l-0.003,0.048l-0.003,0.048l-0.005,0.048l-0.005,0.048l-0.006,0.049l-0.007,0.049l-0.008,0.049l-0.009,0.049l-0.01,0.049l-0.01,0.05l-0.012,0.05l-0.012,0.05l-0.027,0.101l-0.03,0.102l-0.033,0.102l-0.036,0.104l-0.039,0.104l-0.042,0.105l-0.045,0.107l-0.047,0.107l-0.051,0.107l-0.053,0.109l-0.055,0.11l-0.058,0.11l-0.061,0.111l-0.063,0.112l-0.065,0.113l-0.067,0.114l-0.07,0.115l-0.072,0.115l-0.073,0.116l-0.076,0.118l-0.078,0.118l-0.079,0.118l-0.081,0.12l-0.083,0.12l-0.085,0.122l-0.086,0.122l-0.177,0.247l-0.182,0.25l-0.188,0.253l-0.191,0.256l-0.196,0.26l-0.4,0.529l-0.41,0.541l-0.207,0.276l-0.208,0.279l-0.207,0.281l-0.208,0.285l-0.033,0.047l-0.033,0.048l-0.033,0.05l-0.033,0.05l-0.033,0.052l-0.032,0.053l-0.032,0.053l-0.031,0.055l-0.031,0.055l-0.03,0.056l-0.03,0.057l-0.029,0.057l-0.029,0.057l-0.028,0.059l-0.027,0.058l-0.026,0.059l-0.026,0.059l-0.024,0.059l-0.024,0.059l-0.023,0.06l-0.022,0.059l-0.021,0.059l-0.019,0.059l-0.019,0.059l-0.017,0.058l-0.017,0.058l-0.015,0.057l-0.013,0.057l-0.013,0.057l-0.011,0.055l-0.009,0.055l-0.009,0.054l-0.006,0.053l-0.005,0.053l-0.004,0.051l-0.002,0.05l0,0.049l0.002,0.048l0.003,0.046l0.005,0.045l0.007,0.044l0.009,0.042l0.011,0.041l0.013,0.038l0.015,0.038l0.017,0.035l0.019,0.033l0.021,0.032l0.011,0.015l0.012,0.015l0.013,0.014l0.013,0.013l0.013,0.013l0.015,0.012l0.015,0.012l0.015,0.012l0.016,0.01l0.017,0.01l0.017,0.01l0.018,0.009l0.018,0.008l0.019,0.008l0.02,0.007l0.02,0.007l0.021,0.005l0.022,0.006l0.022,0.004l0.023,0.004l0.023,0.003l0.025,0.003l0.05,0.003l0.053,0l0.056,-0.003l0.059,-0.006l0.061,-0.009l0.068,-0.012l0.066,-0.014l0.065,-0.017l0.064,-0.019l0.062,-0.021l0.062,-0.022l0.061,-0.025l0.06,-0.027l0.059,-0.029l0.058,-0.031l0.057,-0.033l0.057,-0.034l0.055,-0.037l0.055,-0.038l0.053,-0.039l0.053,-0.042l0.053,-0.043l0.051,-0.045l0.051,-0.046l0.051,-0.048l0.049,-0.049l0.049,-0.05l0.048,-0.053l0.048,-0.053l0.047,-0.055l0.047,-0.056l0.046,-0.057l0.046,-0.059l0.046,-0.06l0.044,-0.061l0.045,-0.062l0.044,-0.063l0.044,-0.064l0.043,-0.065l0.086,-0.133l0.085,-0.137l0.085,-0.139l0.083,-0.143l0.084,-0.145l0.083,-0.148l0.083,-0.149l0.167,-0.304l0.169,-0.308l0.087,-0.155l0.087,-0.154l0.089,-0.155l0.09,-0.155l0.092,-0.153l0.094,-0.153l0.096,-0.151l0.049,-0.075l0.05,-0.074l0.05,-0.074l0.051,-0.073l0.052,-0.073l0.052,-0.073l0.053,-0.071l0.054,-0.071l0.055,-0.07l0.056,-0.07l0.056,-0.068l0.057,-0.068l0.058,-0.067l0.059,-0.066l0.06,-0.065l0.061,-0.064l0.062,-0.063l0.063,-0.062l0.064,-0.061l0.065,-0.059l0.067,-0.059l0.067,-0.057l0.068,-0.056l0.07,-0.055l0.071,-0.053l0.072,-0.052l0.073,-0.051l0.075,-0.049l0.076,-0.047l0.077,-0.047l0.078,-0.044l0.08,-0.043l0.081,-0.041l0.083,-0.04l0.084,-0.038l0.086,-0.036l0.087,-0.034l0.088,-0.033l0.091,-0.03l0.091,-0.029l0.094,-0.027l0.095,-0.025l0.096,-0.022l0.098,-0.021l0.1,-0.019l0.102,-0.016l0.103,-0.014l0.105,-0.012l0.107,-0.01l0.109,-0.008l0.111,-0.005l0.112,-0.003l0.114,0l0.117,0.002l0.118,0.004l0.12,0.007l0.122,0.01l0.124,0.012l0.062,0.008l0.061,0.008l0.059,0.011l0.059,0.011l0.057,0.013l0.057,0.014l0.055,0.015l0.055,0.017l0.053,0.018l0.052,0.019l0.052,0.021l0.05,0.022l0.049,0.023l0.048,0.024l0.047,0.025l0.047,0.027l0.045,0.028l0.044,0.029l0.043,0.03l0.042,0.031l0.041,0.032l0.04,0.034l0.038,0.034l0.038,0.036l0.037,0.037l0.036,0.038l0.035,0.039l0.034,0.039l0.032,0.041l0.032,0.042l0.031,0.043l0.03,0.044l0.028,0.045l0.028,0.046l0.027,0.047l0.026,0.048l0.024,0.048l0.024,0.05l0.023,0.05l0.022,0.052l0.02,0.052l0.02,0.053l0.019,0.054l0.017,0.055l0.017,0.055l0.016,0.057l0.015,0.057l0.013,0.058l0.013,0.059l0.012,0.059l0.011,0.061l0.01,0.061l0.008,0.061l0.008,0.063l0.007,0.063l0.006,0.064l0.005,0.064l0.004,0.066l0.003,0.065l0.002,0.067l0.001,0.067l0,0.068l-0.001,0.068l-0.002,0.069l-0.003,0.069l-0.003,0.07l-0.005,0.07l-0.006,0.072l-0.006,0.071l-0.008,0.072l-0.009,0.073l-0.009,0.073l-0.011,0.073l-0.011,0.074l-0.013,0.075l-0.013,0.074l-0.014,0.076l-0.016,0.075l-0.016,0.076l-0.017,0.077l-0.018,0.076l-0.019,0.078l-0.02,0.077l-0.021,0.078l-0.022,0.078l-0.023,0.078l-0.023,0.079l-0.025,0.079l-0.026,0.079l-0.026,0.08l-0.028,0.079l-0.028,0.08l-0.029,0.081l-0.03,0.08l-0.032,0.081l-0.032,0.08l-0.033,0.081l-0.034,0.081l-0.034,0.081l-0.036,0.082l-0.037,0.081l-0.037,0.082l-0.039,0.081l-0.039,0.082l-0.041,0.082l-0.041,0.081l-0.042,0.082l-0.043,0.082l-0.044,0.082l-0.045,0.082l-0.046,0.082l-0.046,0.081l-0.048,0.082l-0.048,0.082l-0.05,0.082l-0.05,0.081l-0.051,0.082l-0.052,0.081l-0.053,0.081l-0.054,0.081l-0.055,0.081l-0.055,0.081l-0.057,0.081l-0.057,0.08l-0.058,0.08l-0.059,0.081l-0.06,0.079l-0.061,0.08l-0.055,0.072l-0.054,0.071l-0.052,0.072l-0.051,0.071l-0.051,0.072l-0.049,0.071l-0.048,0.071l-0.047,0.071l-0.045,0.07l-0.045,0.071l-0.043,0.07l-0.043,0.07l-0.041,0.07l-0.04,0.069l-0.039,0.069l-0.038,0.069l-0.037,0.069l-0.036,0.068l-0.035,0.068l-0.034,0.068l-0.033,0.067l-0.031,0.067l-0.031,0.066l-0.029,0.066l-0.029,0.066l-0.028,0.065l-0.026,0.065l-0.026,0.064l-0.024,0.064l-0.023,0.064l-0.023,0.063l-0.021,0.062l-0.021,0.062l-0.019,0.061l-0.019,0.061l-0.018,0.06l-0.016,0.06l-0.016,0.059l-0.014,0.059l-0.014,0.057l-0.013,0.058l-0.012,0.056l-0.011,0.056l-0.01,0.055l-0.009,0.055l-0.008,0.054l-0.007,0.053l-0.006,0.053l-0.006,0.051l-0.004,0.051l-0.004,0.05l-0.003,0.05l-0.001,0.048l-0.001,0.048l0,0.047l0,0.046l0.002,0.045l0.003,0.045l0.003,0.043l0.004,0.043l0.005,0.042l0.006,0.04l0.007,0.04l0.007,0.039l0.009,0.038l0.009,0.037l0.01,0.036l0.01,0.035l0.012,0.034l0.012,0.033l0.013,0.032l0.014,0.031l0.015,0.029l0.015,0.029l0.017,0.028l0.017,0.026l0.017,0.026l0.019,0.024l0.019,0.023l0.02,0.022l0.021,0.02l0.021,0.02l0.022,0.018l0.023,0.017l0.024,0.016l0.024,0.015l0.025,0.013l0.026,0.012l0.026,0.011l0.027,0.009l0.028,0.008l0.028,0.007l0.029,0.006l0.03,0.004l0.03,0.002l0.031,0.002l0.032,0l0.033,-0.002l0.032,-0.003l0.034,-0.004l0.034,-0.006l0.035,-0.007l0.036,-0.009l0.036,-0.01l0.036,-0.012l0.038,-0.013l0.037,-0.015l0.039,-0.017l0.039,-0.018l0.04,-0.019l0.04,-0.021l0.041,-0.023l0.041,-0.024l0.042,-0.026l0.042,-0.028l0.043,-0.029l0.044,-0.031l0.044,-0.033l0.044,-0.034l0.045,-0.036l0.046,-0.038l0.046,-0.04l0.047,-0.041l0.047,-0.043l0.047,-0.045l0.049,-0.047l0.048,-0.048l0.049,-0.051l-0.01,0.132l-0.007,0.133l-0.005,0.133l-0.001,0.134l0.001,0.113l0.003,0.112l0.005,0.111l0.007,0.111l0.01,0.111l0.011,0.109l0.013,0.11l0.015,0.108l0.017,0.109l0.019,0.107l0.021,0.107l0.023,0.106l0.024,0.105l0.027,0.105l0.028,0.104l0.03,0.103l-0.079,0.036l-0.079,0.034l-0.08,0.031l-0.082,0.029l-0.082,0.027l-0.083,0.024l-0.084,0.022l-0.085,0.02l-0.085,0.018l-0.086,0.015l-0.086,0.013l-0.087,0.01l-0.087,0.009l-0.087,0.006l-0.088,0.004l-0.087,0.001l-0.088,-0.001l-0.088,-0.002l-0.087,-0.005l-0.088,-0.008l-0.087,-0.009l-0.087,-0.012l-0.086,-0.014l-0.086,-0.016l-0.086,-0.018l-0.085,-0.02l-0.085,-0.022l-0.083,-0.025l-0.083,-0.026l-0.082,-0.029l-0.082,-0.031l-0.08,-0.032l-0.079,-0.035l-0.078,-0.037l-0.077,-0.039l-0.076,-0.041l-0.074,-0.043l-0.073,-0.046l-0.071,-0.047l-0.07,-0.049l-0.069,-0.051l-0.066,-0.053l-0.065,-0.055l-0.063,-0.057l-0.061,-0.059l-0.06,-0.061l-0.057,-0.062l-0.055,-0.065l-0.053,-0.067l-0.051,-0.068l-0.048,-0.071l-0.024,-0.036l-0.022,-0.036l-0.022,-0.037l-0.022,-0.037l-0.021,-0.038l-0.02,-0.038l-0.02,-0.039l-0.019,-0.039l-0.018,-0.039l-0.018,-0.041l-0.017,-0.04l-0.016,-0.041l-0.015,-0.041l-0.015,-0.042l-0.015,-0.043l-0.013,-0.042l-0.013,-0.044l-0.012,-0.043l-0.011,-0.045l-0.01,-0.044l-0.01,-0.045l-0.009,-0.046l-0.008,-0.045l-0.007,-0.047l-0.007,-0.047l-0.006,-0.047l-0.007,-0.072l-0.005,-0.073l-0.003,-0.074l-0.001,-0.075l0.001,-0.075l0.003,-0.076l0.005,-0.076l0.007,-0.078l0.008,-0.078l0.011,-0.078l0.012,-0.079l0.013,-0.08l0.016,-0.081l0.017,-0.08l0.019,-0.082l0.02,-0.082l0.022,-0.082l0.023,-0.083l0.025,-0.084l0.026,-0.084l0.027,-0.084l0.029,-0.085l0.031,-0.085l0.031,-0.085l0.033,-0.086l0.034,-0.086l0.035,-0.087l0.036,-0.087l0.038,-0.087l0.038,-0.087l0.04,-0.088l0.04,-0.088l0.042,-0.088l0.042,-0.088l0.088,-0.178l0.091,-0.177l0.093,-0.179l0.097,-0.178l0.099,-0.179l0.101,-0.179l0.103,-0.179l0.104,-0.179l0.106,-0.178l0.107,-0.178l0.107,-0.177l0.216,-0.352l0.216,-0.348l0.213,-0.343l0.207,-0.336l0.101,-0.165l0.099,-0.163l0.097,-0.161l0.094,-0.159l0.091,-0.156l0.087,-0.154l0.085,-0.151l0.08,-0.148l0.076,-0.146l0.072,-0.142l0.067,-0.139l0.031,-0.068l0.031,-0.067l0.029,-0.066l0.027,-0.066l0.027,-0.064l0.025,-0.064l0.023,-0.063l0.022,-0.061l0.02,-0.061l0.019,-0.059l0.017,-0.059l0.016,-0.058l0.014,-0.056l0.012,-0.056l0.011,-0.054l0.008,-0.053l0.007,-0.052l0.005,-0.051l0.003,-0.05l0.001,-0.049l0,-0.047l-0.003,-0.046l-0.005,-0.045l-0.007,-0.044l-0.009,-0.042l-0.011,-0.041l-0.013,-0.04l-0.015,-0.039l-0.018,-0.037l-0.02,-0.036l-0.023,-0.034l-0.024,-0.033l-0.027,-0.032l-0.03,-0.03l-0.06,-0.056l-0.06,-0.052l-0.031,-0.025l-0.03,-0.023l-0.03,-0.023l-0.03,-0.021l-0.03,-0.021l-0.03,-0.019l-0.03,-0.019l-0.03,-0.018l-0.03,-0.017l-0.03,-0.015l-0.03,-0.015l-0.029,-0.014l-0.03,-0.013l-0.03,-0.013l-0.03,-0.011l-0.03,-0.01l-0.029,-0.01l-0.03,-0.008l-0.03,-0.008l-0.03,-0.007l-0.029,-0.005l-0.03,-0.005l-0.03,-0.005l-0.029,-0.003l-0.03,-0.002l-0.03,-0.002l-0.029,-0.001l-0.03,0l-0.029,0.001l-0.03,0.001l-0.029,0.003l-0.03,0.003l-0.029,0.004l-0.03,0.005l-0.029,0.006l-0.03,0.006l-0.059,0.015l-0.059,0.018l-0.058,0.021l-0.059,0.024l-0.059,0.027l-0.059,0.03l-0.059,0.032l-0.058,0.035l-0.059,0.038l-0.059,0.041l-0.058,0.043l-0.059,0.045l-0.058,0.048l-0.059,0.051l-0.059,0.053l-0.058,0.055l-0.059,0.057l-0.059,0.06l-0.058,0.062l-0.059,0.064l-0.059,0.066l-0.059,0.068l-0.058,0.07l-0.059,0.071l-0.059,0.074l-0.059,0.076l-0.059,0.077l-0.059,0.079l-0.059,0.081l-0.059,0.082l-0.059,0.084l-0.059,0.085l-0.118,0.175l-0.119,0.181l-0.119,0.186l-0.12,0.19l-0.12,0.194l-0.12,0.198l-0.118,0.199l-0.118,0.199l-0.235,0.399l-0.117,0.199l-0.118,0.197l-0.119,0.195l-0.121,0.192l-0.06,0.095l-0.061,0.094l-0.062,0.093l-0.062,0.092l-0.063,0.091l-0.064,0.09l-0.064,0.089l-0.065,0.087l-0.065,0.086l-0.067,0.084l-0.067,0.083l-0.068,0.081l-0.069,0.08l-0.071,0.078l-0.071,0.076l-0.072,0.074l-0.073,0.072l-0.075,0.07l-0.075,0.068l-0.077,0.065l-0.078,0.064l-0.08,0.061l-0.081,0.059l-0.082,0.056l-0.042,0.027l-0.042,0.027l-0.042,0.025l-0.043,0.026l-0.043,0.024l-0.044,0.024l-0.044,0.023l-0.044,0.022l-0.045,0.022l-0.045,0.021l-0.046,0.02l-0.046,0.02l-0.047,0.019l-0.047,0.018l-0.047,0.017l-0.048,0.016l-0.048,0.016l-0.049,0.015l-0.049,0.014l-0.05,0.013l-0.05,0.012l-0.051,0.012l-0.051,0.011l-0.051,0.01l-0.052,0.009l-0.053,0.008l-0.053,0.007l-0.054,0.007l-0.054,0.005l-0.055,0.005l-0.055,0.003l-0.056,0.003l-0.056,0.002l-0.057,0.001l-0.057,0l-0.058,-0.001l-0.059,-0.002l-0.059,-0.003l-0.059,-0.004l-0.061,-0.005l-0.06,-0.006l-0.062,-0.007l-0.062,-0.008l-0.062,-0.009l-0.064,-0.01l-0.063,-0.011l-0.065,-0.012l-0.065,-0.014l-0.09,-0.02l-0.09,-0.023l-0.09,-0.027l-0.089,-0.029l-0.088,-0.031l-0.088,-0.035l-0.087,-0.038l-0.043,-0.019l-0.042,-0.021l-0.043,-0.021l-0.042,-0.022l-0.041,-0.022l-0.042,-0.024l-0.04,-0.024l-0.041,-0.024l-0.04,-0.025l-0.039,-0.026l-0.039,-0.027l-0.039,-0.027l-0.037,-0.028l-0.038,-0.029l-0.037,-0.029l-0.036,-0.03l-0.036,-0.03l-0.035,-0.031l-0.034,-0.032l-0.034,-0.033l-0.033,-0.033l-0.032,-0.034l-0.032,-0.034l-0.03,-0.035l-0.03,-0.036l-0.03,-0.036l-0.028,-0.037l-0.028,-0.038l-0.027,-0.038l-0.026,-0.039l-0.025,-0.039l-0.024,-0.04l-0.023,-0.041l-0.022,-0.042l-0.021,-0.041l-0.021,-0.043l-0.019,-0.043l-0.018,-0.044l-0.018,-0.044l-0.016,-0.045l-0.015,-0.046l-0.014,-0.046l-0.012,-0.047l-0.012,-0.047l-0.011,-0.048l-0.009,-0.049l-0.008,-0.049l-0.007,-0.05l-0.006,-0.05l-0.004,-0.051l-0.004,-0.071l-0.003,-0.071l-0.002,-0.07l0,-0.071l0.002,-0.07l0.003,-0.07l0.004,-0.07l0.005,-0.07l0.007,-0.069l0.009,-0.069l0.009,-0.069l0.011,-0.069l0.012,-0.069l0.014,-0.069l0.015,-0.068l0.015,-0.068l0.018,-0.068l0.018,-0.068l0.019,-0.068l0.021,-0.068l0.022,-0.067l0.022,-0.068l0.024,-0.067l0.025,-0.067l0.026,-0.067l0.027,-0.067l0.028,-0.067l0.029,-0.067l0.03,-0.067l0.031,-0.066l0.032,-0.067l0.033,-0.066l0.034,-0.067l0.034,-0.066l0.036,-0.066l0.036,-0.066l0.075,-0.132l0.078,-0.132l0.081,-0.132l0.084,-0.132l0.087,-0.131l0.089,-0.132l0.091,-0.132l0.093,-0.131l0.096,-0.132l0.097,-0.132l0.1,-0.132l0.1,-0.132l0.102,-0.132l0.104,-0.133l0.21,-0.266l0.213,-0.268l0.215,-0.269l0.216,-0.272l0.216,-0.274l0.107,-0.138l0.107,-0.139l0.106,-0.139l0.105,-0.141l0.104,-0.141l0.103,-0.142l0.101,-0.142l0.1,-0.144l0.098,-0.145l0.097,-0.146l0.094,-0.147l0.093,-0.148l0.09,-0.149l0.087,-0.15l0.085,-0.151l0.042,-0.076l0.041,-0.077l0.04,-0.077l0.039,-0.077l0.039,-0.077l0.038,-0.078l0.037,-0.078l0.036,-0.079l0.036,-0.078l0.034,-0.08l0.034,-0.079l0.032,-0.08l0.032,-0.08l0.031,-0.081l0.042,-0.113l0.021,-0.06l0.021,-0.062l0.02,-0.064l0.019,-0.065l0.018,-0.066l0.016,-0.065l0.014,-0.066l0.011,-0.065l0.004,-0.032l0.004,-0.032l0.003,-0.031l0.002,-0.031l0.001,-0.03l0,-0.03l-0.001,-0.03l-0.003,-0.029l-0.003,-0.028l-0.004,-0.027l-0.006,-0.026l-0.007,-0.026l-0.008,-0.025l-0.01,-0.024l-0.011,-0.022l-0.012,-0.022l-0.015,-0.021l-0.015,-0.019l-0.018,-0.018l-0.018,-0.017l-0.021,-0.016l-0.023,-0.014l-0.024,-0.013l-0.026,-0.011l-0.028,-0.01l-0.03,-0.008l-0.032,-0.007l-0.034,-0.005l-0.036,-0.003l-0.038,-0.001l-0.041,0.001l-0.042,0.002l-0.045,0.005l-0.048,0.006l-0.05,0.009l-0.052,0.011l-0.054,0.013l-0.058,0.015l-0.06,0.017l-0.062,0.02l-0.065,0.022l-0.068,0.025l-0.071,0.027l-0.073,0.03l-0.064,0.027l-0.065,0.029l-0.064,0.03l-0.065,0.032l-0.065,0.032l-0.066,0.034l-0.065,0.035l-0.066,0.037l-0.065,0.037l-0.066,0.038l-0.066,0.039l-0.065,0.041l-0.131,0.082l-0.129,0.085l-0.129,0.088l-0.127,0.089l-0.124,0.09l-0.123,0.092l-0.12,0.091l-0.117,0.092l-0.114,0.09l-0.111,0.09l-0.106,0.088l-0.102,0.086l-0.097,0.083l-0.092,0.08l-0.087,0.076l-0.081,0.072l-0.143,0.131l-0.117,0.108l-0.087,0.082l-0.072,0.07l-1.406,-1.422l0.139,-0.137l0.14,-0.136l0.142,-0.136l0.143,-0.136l0.145,-0.135l0.147,-0.134l0.148,-0.132l0.15,-0.131l0.151,-0.129l0.153,-0.126l0.077,-0.062l0.077,-0.062l0.078,-0.061l0.078,-0.06l0.078,-0.059l0.079,-0.059l0.079,-0.057l0.08,-0.057l0.08,-0.056l0.08,-0.054l0.081,-0.054l0.081,-0.053l0.082,-0.051l0.081,-0.051l0.083,-0.049l0.082,-0.048l0.083,-0.047l0.083,-0.045l0.084,-0.045l0.084,-0.042l0.084,-0.042l0.085,-0.04l0.085,-0.038l0.085,-0.037l0.086,-0.036l0.086,-0.034l0.087,-0.032l0.087,-0.03l0.087,-0.029l0.087,-0.027l0.088,-0.026l0.088,-0.023l0.089,-0.022l0.089,-0.02l0.089,-0.018l0.09,-0.015l0.09,-0.014l0.09,-0.012l0.091,-0.01l0.09,-0.008l0.092,-0.005l0.091,-0.004l0.092,-0.001l0.093,0.001Zm14.528,9.495l-0.073,0.044l-0.056,0.035l-0.043,0.028l-0.034,0.022l-0.027,0.02l-0.024,0.018l-0.054,0.041l-0.065,0.05l-0.064,0.052l-0.063,0.052l-0.062,0.052l-0.063,0.054l-0.061,0.054l-0.061,0.055l-0.06,0.056l-0.06,0.056l-0.059,0.057l-0.058,0.057l-0.058,0.059l-0.058,0.058l-0.056,0.06l-0.057,0.06l-0.056,0.061l-0.055,0.061l-0.055,0.062l-0.108,0.125l-0.106,0.127l-0.105,0.13l-0.103,0.131l-0.101,0.134l-0.1,0.135l-0.098,0.137l-0.101,0.002l-0.099,0.004l-0.1,0.005l-0.099,0.008l-0.098,0.008l-0.098,0.011l-0.098,0.012l-0.097,0.013l-0.097,0.015l-0.096,0.017l-0.095,0.018l-0.095,0.019l-0.095,0.021l-0.094,0.023l-0.093,0.024l-0.093,0.025l-0.092,0.027l-0.092,0.029l-0.09,0.029l-0.091,0.032l-0.089,0.032l-0.089,0.034l-0.088,0.035l-0.088,0.037l-0.087,0.038l-0.086,0.039l-0.085,0.041l-0.085,0.042l-0.084,0.043l-0.083,0.045l-0.082,0.045l-0.082,0.047l0.107,-0.179l0.107,-0.178l0.108,-0.177l0.108,-0.176l0.11,-0.175l0.111,-0.173l0.111,-0.172l0.112,-0.17l0.114,-0.168l0.115,-0.167l0.115,-0.165l0.118,-0.162l0.118,-0.16l0.119,-0.158l0.122,-0.156l0.122,-0.152l0.124,-0.15l0.063,-0.074l0.062,-0.074l0.064,-0.072l0.064,-0.072l0.064,-0.071l0.064,-0.07l0.065,-0.069l0.066,-0.069l0.066,-0.068l0.066,-0.066l0.067,-0.067l0.067,-0.065l0.068,-0.064l0.068,-0.063l0.069,-0.063l0.069,-0.061l0.07,-0.061l0.07,-0.059l0.07,-0.059l0.072,-0.057l0.071,-0.057l0.073,-0.055l0.072,-0.055l0.074,-0.053l0.074,-0.052l0.074,-0.051l0.075,-0.051l0.076,-0.049l0.076,-0.047l0.076,-0.047l1.028,1.716Z"/></svg>