<?xml version="1.0" encoding="UTF-8" standalone="no"?><!DOCTYPE svg PUBLIC "-//W3C//DTD SVG 1.1//EN" "http://www.w3.org/Graphics/SVG/1.1/DTD/svg11.dtd"><svg width="24px" height="24px" version="1.1" xmlns="http://www.w3.org/2000/svg" xmlns:xlink="http://www.w3.org/1999/xlink" xml:space="preserve" xmlns:serif="http://www.serif.com/" style="fill-rule:evenodd;clip-rule:evenodd;stroke-linejoin:round;stroke-miterlimit:1.41421;"><path id="Rigth" d="M12.874,13c-0.445,1.724 -2.012,3 -3.874,3c-2.038,0 -3.723,-1.528 -3.969,-3.5l-3.031,0l0,-1l3.031,0c0.246,-1.972 1.931,-3.5 3.969,-3.5c1.862,0 3.429,1.276 3.874,3l5.126,0l0,-1l4,0l0,4l-4,0l0,-1l-5.126,0Zm-3.874,-3c-1.104,0 -2,0.896 -2,2c0,1.104 0.896,2 2,2c1.104,0 2,-0.896 2,-2c0,-1.104 -0.896,-2 -2,-2Z"/></svg>