<?xml version="1.0" encoding="UTF-8" standalone="no"?><!DOCTYPE svg PUBLIC "-//W3C//DTD SVG 1.1//EN" "http://www.w3.org/Graphics/SVG/1.1/DTD/svg11.dtd"><svg width="24px" height="24px" version="1.1" xmlns="http://www.w3.org/2000/svg" xmlns:xlink="http://www.w3.org/1999/xlink" xml:space="preserve" xmlns:serif="http://www.serif.com/" style="fill-rule:evenodd;clip-rule:evenodd;stroke-linejoin:round;stroke-miterlimit:1.41421;"><path d="M7.486,2.363c1.109,0.059 2.111,0.887 2.341,1.995c0.399,1.914 -1.97,4.446 -4.177,7.5c-0.714,0.988 -1.344,2.895 0,2.673c2.892,-0.475 2.666,-7.095 8.006,-6.519c2.657,0.287 2.436,4.346 -0.18,7.738c-2.84,3.682 -1.104,7.042 1.964,1.742c1.602,-2.768 3.145,-5.912 5.546,-7.35l1.028,1.716c-0.219,0.131 -0.226,0.145 -0.311,0.208c-2.98,2.306 -3.868,7 -6.982,9.379c-1.617,1.236 -4.562,0.452 -4.813,-1.773c-0.345,-3.069 5.058,-8.272 3.748,-9.53c-1.29,-1.239 -2.505,0.311 -3.789,2.444c-1.27,2.112 -2.344,4.468 -5.133,3.88c-0.962,-0.202 -1.922,-0.9 -2.001,-1.992c-0.22,-3.037 3.678,-5.46 4.977,-8.908c0.216,-0.571 0.582,-1.693 -1.016,-1.031c-1.362,0.565 -2.991,2.176 -2.991,2.176l-1.406,-1.422c1.47,-1.453 3.217,-2.974 5.189,-2.926Z" style="fill-rule:nonzero;"/></svg>