<?xml version="1.0" encoding="UTF-8" standalone="no"?><!DOCTYPE svg PUBLIC "-//W3C//DTD SVG 1.1//EN" "http://www.w3.org/Graphics/SVG/1.1/DTD/svg11.dtd"><svg width="24px" height="24px" version="1.1" xmlns="http://www.w3.org/2000/svg" xmlns:xlink="http://www.w3.org/1999/xlink" xml:space="preserve" xmlns:serif="http://www.serif.com/" style="fill-rule:evenodd;clip-rule:evenodd;stroke-linejoin:round;stroke-miterlimit:1.41421;"><path d="M17.7,5l-3.54,3.55l0.34,0.45c2.19,-1.26 4.76,-2 7.5,-2l1,0.03l0,2.01l-1,-0.04c-2.58,0 -5,0.75 -7,2.04c0,2.172 -1.788,3.96 -3.96,3.96c-1.29,2 -2.04,4.42 -2.04,7l0.04,1l-2.01,0l-0.03,-1c0,-2.74 0.74,-5.31 2,-7.5l-0.45,-0.34l-3.55,3.54l0,2.3l-3,0l0,-3l2.3,0l3.54,-3.55c-0.53,-0.67 -0.84,-1.53 -0.84,-2.45c0,-2.194 1.806,-4 4,-4c0.92,0 1.78,0.31 2.45,0.84l3.55,-3.54l0,-2.3l3,0l0,3l-2.3,0Zm-6.7,4c-1.097,0 -2,0.903 -2,2c0,1.097 0.903,2 2,2c1.097,0 2,-0.903 2,-2c0,-1.097 -0.903,-2 -2,-2Z"/></svg>