<?xml version="1.0" encoding="UTF-8" standalone="no"?><!DOCTYPE svg PUBLIC "-//W3C//DTD SVG 1.1//EN" "http://www.w3.org/Graphics/SVG/1.1/DTD/svg11.dtd"><svg width="24px" height="24px" version="1.1" xmlns="http://www.w3.org/2000/svg" xmlns:xlink="http://www.w3.org/1999/xlink" xml:space="preserve" xmlns:serif="http://www.serif.com/" style="fill-rule:evenodd;clip-rule:evenodd;stroke-linejoin:round;stroke-miterlimit:1.41421;"><path d="M16,13l0,-2l5,0l0,2l-5,0Zm-1.172,-5.243l2.829,-2.829l1.414,1.415l-2.829,2.828l-1.414,-1.414Zm-3.828,8.243l2,0l0,5l-2,0l0,-5Zm0,-13l2,0l0,5l-2,0l0,-5Zm-6.071,14.657l2.829,-2.829l1.414,1.414l-2.828,2.829l-1.415,-1.414Zm0,-11.314l1.415,-1.415l2.828,2.829l-1.414,1.414l-2.829,-2.828Zm3.071,6.657l-5,0l0,-2l5,0l0,2Z" style="fill-rule:nonzero;"/><path d="M16,19l3,0l0,-3l2,0l0,3l3,0l0,2l-3,0l0,3l-2,0l0,-3l-3,0l0,-2Z"/></svg>