<?xml version="1.0" encoding="UTF-8" standalone="no"?><!DOCTYPE svg PUBLIC "-//W3C//DTD SVG 1.1//EN" "http://www.w3.org/Graphics/SVG/1.1/DTD/svg11.dtd"><svg width="24px" height="24px" version="1.1" xmlns="http://www.w3.org/2000/svg" xmlns:xlink="http://www.w3.org/1999/xlink" xml:space="preserve" xmlns:serif="http://www.serif.com/" style="fill-rule:evenodd;clip-rule:evenodd;stroke-linejoin:round;stroke-miterlimit:1.41421;"><path d="M19,17l3,0l0,2l-3,0l0,3l-2,0l0,-3l-3,0l0,-2l3,0l0,-3l2,0l0,3Zm0.346,-5.396l-2.121,2.121l-1.414,-1.414l-7.711,7.71l-4.6,1.858l-1.5,-1.5l1.858,-4.601l7.71,-7.71l-1.414,-1.414l2.121,-2.122l7.071,7.072Zm-13.788,5.303l-1.058,2.472l2.472,-1.058l7.424,-7.425l-1.414,-1.414l-7.424,7.425Zm11.199,-14.028c1.172,-1.172 3.071,-1.172 4.243,0c1.172,1.171 1.172,3.071 0,4.242l-1.922,1.922l-4.242,-4.243l1.921,-1.921Z"/></svg>