<?xml version="1.0" encoding="UTF-8" standalone="no"?>
<svg
   xmlns:dc="http://purl.org/dc/elements/1.1/"
   xmlns:cc="http://creativecommons.org/ns#"
   xmlns:rdf="http://www.w3.org/1999/02/22-rdf-syntax-ns#"
   xmlns:svg="http://www.w3.org/2000/svg"
   xmlns="http://www.w3.org/2000/svg"
   xmlns:sodipodi="http://sodipodi.sourceforge.net/DTD/sodipodi-0.dtd"
   xmlns:inkscape="http://www.inkscape.org/namespaces/inkscape"
   width="24px"
   height="24px"
   version="1.1"
   xml:space="preserve"
   style="fill-rule:evenodd;clip-rule:evenodd;stroke-linejoin:round;stroke-miterlimit:1.41421;"
   id="svg22"
   sodipodi:docname="folder-plus.svg"
   inkscape:version="1.0.1 (3bc2e813f5, 2020-09-07)"><metadata
     id="metadata28"><rdf:RDF><cc:Work
         rdf:about=""><dc:format>image/svg+xml</dc:format><dc:type
           rdf:resource="http://purl.org/dc/dcmitype/StillImage" /><dc:title></dc:title></cc:Work></rdf:RDF></metadata><defs
     id="defs26"><mask
       maskUnits="userSpaceOnUse"
       id="mask169"><g
         id="g179"
         style="opacity:1"><g
           id="g177"><g
             id="g175"><rect
               style="opacity:1;fill:#ffffff;stroke-width:0.879929"
               id="rect171"
               width="21.743355"
               height="25.354828"
               x="0.54734492"
               y="-1.4219483e-10" /><rect
               style="opacity:1;fill:#000000;stroke-width:1.03187"
               id="rect173"
               width="7.1047397"
               height="7.1720829"
               x="13.89526"
               y="13.827917" /></g></g></g></mask></defs><sodipodi:namedview
     pagecolor="#ffffff"
     bordercolor="#666666"
     borderopacity="1"
     objecttolerance="10"
     gridtolerance="10"
     guidetolerance="10"
     inkscape:pageopacity="0"
     inkscape:pageshadow="2"
     inkscape:window-width="2015"
     inkscape:window-height="1226"
     id="namedview24"
     showgrid="false"
     inkscape:zoom="29.698485"
     inkscape:cx="9.1837783"
     inkscape:cy="11.544065"
     inkscape:window-x="472"
     inkscape:window-y="106"
     inkscape:window-maximized="0"
     inkscape:current-layer="svg22" /><path
     d="m 21,19 h 3 v 2 h -3 v 3 h -2 v -3 h -3 v -2 h 3 v -3 h 2 z"
     id="path20"
     sodipodi:nodetypes="ccccccccccccc" /><path
     d="M -1,1 H 23 V 25 H -1 Z"
     fill="none"
     id="path30" /><g
     id="g98"
     mask="url(#mask169)"><path
       d="M 19,7 H 11 L 9,5 H 3 C 1.9,5 1.01,5.9 1.01,7 L 1,19 c 0,1.1 0.9,2 2,2 h 16 c 1.1,0 2,-0.9 2,-2 V 9 C 21,7.9 20.1,7 19,7 Z m 0,12 H 3 V 9 h 16 z"
       id="path32"
       style="fill:#000000" /></g></svg>
