<?xml version="1.0" encoding="UTF-8" standalone="no"?>
<!DOCTYPE svg PUBLIC "-//W3C//DTD SVG 1.1//EN" "http://www.w3.org/Graphics/SVG/1.1/DTD/svg11.dtd">
<svg width="24px" height="24px" version="1.1" xmlns="http://www.w3.org/2000/svg" xmlns:xlink="http://www.w3.org/1999/xlink" xml:space="preserve" xmlns:serif="http://www.serif.com/" style="fill-rule:evenodd;clip-rule:evenodd;stroke-linejoin:round;stroke-miterlimit:1.41421;">
  <path d="M 9 5 C 9 5 5.0829788 5.0092757 2.9257812 5.0722656 C 1.704124 5.1831574 1.0090882 6.2566698 1.0722656 7.1835938 C 0.95173311 11.249608 0.99126973 15.294201 1.0097656 19.361328 C 1.2730469 20.547954 1.8572782 21.129635 3.0195312 21.125 C 12.389933 21.08763 13.867188 21.101563 13.867188 21.101562 L 13.873047 18.923828 L 3 19 L 3 9 L 19 9 L 18.990234 13.804688 L 20.976562 13.771484 C 20.976562 13.771484 21.033551 10.43672 20.988281 8.7734375 C 20.884943 7.7891164 20.05258 6.9773934 19 7 C 16.333477 7.033285 11 7 11 7 L 10.345703 6.3457031 L 9 5 z M 19 16 L 19 19 L 16 19 L 16 21 L 19 21 L 19 24 L 21 24 L 21 21 L 24 21 L 24 19 L 21 19 L 21 16 L 19 16 z " />
</svg>