<?xml version="1.0" encoding="UTF-8" standalone="no"?>
<!DOCTYPE svg PUBLIC "-//W3C//DTD SVG 1.1//EN" "http://www.w3.org/Graphics/SVG/1.1/DTD/svg11.dtd">
<svg width="24px" height="24px" version="1.1" xmlns="http://www.w3.org/2000/svg" xmlns:xlink="http://www.w3.org/1999/xlink" xml:space="preserve" xmlns:serif="http://www.serif.com/" style="fill-rule:evenodd;clip-rule:evenodd;stroke-linejoin:round;stroke-miterlimit:2;">
    <path d="M22.54,16.88l-2.13,2.12l2.13,2.12l-1.42,1.42l-2.12,-2.13l-2.12,2.13l-1.41,-1.42l2.12,-2.12l-2.12,-2.12l1.41,-1.41l2.12,2.12l2.12,-2.13l1.42,1.42" style="fill-rule:nonzero;"/>
    <path d="M3,21l8,0l0,-8l-8,0l0,8Zm18,-6.769c-0.608,-0.27 -1.28,-0.42 -1.985,-0.42c-2.751,-0 -4.985,2.282 -4.985,5.094c0,0.747 0.157,1.456 0.44,2.095l-1.47,0l0,-8l8,0l0,1.231Zm-18,-3.231l8,0l0,-8l-8,0l0,8Zm10,-8l0,8l8,0l0,-8l-8,0Z" style="fill-rule:nonzero;"/>
</svg>
