<?xml version="1.0" encoding="UTF-8" standalone="no"?><!DOCTYPE svg PUBLIC "-//W3C//DTD SVG 1.1//EN" "http://www.w3.org/Graphics/SVG/1.1/DTD/svg11.dtd"><svg width="24px" height="24px" version="1.1" xmlns="http://www.w3.org/2000/svg" xmlns:xlink="http://www.w3.org/1999/xlink" xml:space="preserve" xmlns:serif="http://www.serif.com/" style="fill-rule:evenodd;clip-rule:evenodd;stroke-linejoin:round;stroke-miterlimit:1.41421;"><path d="M21,19l3,0l0,2l-3,0l0,3l-2,0l0,-3l-3,0l0,-2l3,0l0,-3l2,0l0,3Zm-6.917,2l-9.083,0c-1.1,0 -2,-0.9 -2,-2l0,-14c0,-1.1 0.9,-2 2,-2l14,0c1.1,0 2,0.89 2,2l0,9.083c-0.325,-0.055 -0.659,-0.083 -1,-0.083c-1.207,0 -2.331,0.357 -3.272,0.971l-2.228,-2.971l-3.5,4.5l-2.5,-3l-3.5,4.5l9.342,0c-0.221,0.626 -0.342,1.299 -0.342,2c0,0.341 0.028,0.675 0.083,1Z"/></svg>