<?xml version="1.0" encoding="UTF-8" standalone="no"?><!DOCTYPE svg PUBLIC "-//W3C//DTD SVG 1.1//EN" "http://www.w3.org/Graphics/SVG/1.1/DTD/svg11.dtd"><svg width="24px" height="24px" version="1.1" xmlns="http://www.w3.org/2000/svg" xmlns:xlink="http://www.w3.org/1999/xlink" xml:space="preserve" xmlns:serif="http://www.serif.com/" style="fill-rule:evenodd;clip-rule:evenodd;stroke-linejoin:round;stroke-miterlimit:1.41421;"><path d="M21,19l3,0l0,2l-3,0l0,3l-2,0l0,-3l-3,0l0,-2l3,0l0,-3l2,0l0,3Zm-12.003,-17c3.865,0 7,3.134 7,7c0,5.25 -7,13 -7,13c0,0 -7,-7.75 -7,-13c0,-3.866 3.135,-7 7,-7Zm5.754,15.093c-0.478,0.861 -0.751,1.852 -0.751,2.907c0,0.258 0.016,0.513 0.048,0.763c-0.631,0.775 -1.048,1.237 -1.048,1.237l-1.006,-1.185c0.397,-0.493 1.56,-1.911 2.757,-3.722Zm0.431,-0.667c1.451,-2.305 2.826,-5.097 2.818,-7.426c0,-2.667 -1.16,-5.063 -3.003,-6.711c2.893,0.86 5.003,3.539 5.003,6.711c0,1.599 -0.649,3.43 -1.553,5.203c-1.324,0.355 -2.469,1.152 -3.265,2.223Zm-6.185,-4.926c1.381,0 2.5,-1.119 2.5,-2.5c0,-1.381 -1.119,-2.5 -2.5,-2.5c-1.38,0 -2.5,1.119 -2.5,2.5c0,1.381 1.12,2.5 2.5,2.5Z"/></svg>