<?xml version="1.0" encoding="UTF-8" standalone="no"?><!DOCTYPE svg PUBLIC "-//W3C//DTD SVG 1.1//EN" "http://www.w3.org/Graphics/SVG/1.1/DTD/svg11.dtd"><svg width="24px" height="24px" version="1.1" xmlns="http://www.w3.org/2000/svg" xmlns:xlink="http://www.w3.org/1999/xlink" xml:space="preserve" xmlns:serif="http://www.serif.com/" style="fill-rule:evenodd;clip-rule:evenodd;stroke-linejoin:round;stroke-miterlimit:1.41421;"><path d="M12.003,18.185c-1.571,2.226 -3.006,3.815 -3.006,3.815c0,0 -7,-7.75 -7,-13c0,-3.866 3.135,-7 7,-7c3.865,0 7,3.134 7,7c0,1.16 -0.342,2.441 -0.874,3.734c-1.86,1.02 -3.123,2.997 -3.123,5.266c0,0.062 0.001,0.123 0.003,0.185Zm0.437,2.074c0.211,0.517 0.492,0.999 0.831,1.432c-0.173,0.2 -0.271,0.309 -0.271,0.309l-1.006,-1.185c0.102,-0.127 0.255,-0.316 0.446,-0.556Zm6.56,-3.259l3,0l0,2l-3,0l0,3l-2,0l0,-3l-3,0l0,-2l3,0l0,-3l2,0l0,3Zm-1.596,-4.971c0.371,-1.044 0.599,-2.075 0.596,-3.029c0,-2.667 -1.16,-5.063 -3.003,-6.711c2.893,0.86 5.003,3.539 5.003,6.711c0,0.986 -0.247,2.059 -0.648,3.153c-0.434,-0.1 -0.887,-0.153 -1.352,-0.153c-0.201,0 -0.4,0.01 -0.596,0.029Zm-8.407,-0.529c1.381,0 2.5,-1.119 2.5,-2.5c0,-1.381 -1.119,-2.5 -2.5,-2.5c-1.38,0 -2.5,1.119 -2.5,2.5c0,1.381 1.12,2.5 2.5,2.5Z"/></svg>