<?xml version="1.0" encoding="UTF-8" standalone="no"?><!DOCTYPE svg PUBLIC "-//W3C//DTD SVG 1.1//EN" "http://www.w3.org/Graphics/SVG/1.1/DTD/svg11.dtd"><svg width="24px" height="24px" version="1.1" xmlns="http://www.w3.org/2000/svg" xmlns:xlink="http://www.w3.org/1999/xlink" xml:space="preserve" xmlns:serif="http://www.serif.com/" style="fill-rule:evenodd;clip-rule:evenodd;stroke-linejoin:round;stroke-miterlimit:1.41421;"><path d="M11.831,2.042c4.02,0.065 8.846,1.001 9.169,5.186c0.225,2.912 -2.183,5.856 -5.212,4.772c-1.252,-0.468 -2.836,-1.68 -2.917,2.15c-0.009,0.64 -0.003,1.28 -0.011,1.919c-0.057,3.236 -1.408,6.851 -5.106,6.21c-2.117,-0.367 -4.259,-1.481 -5.124,-3.631c-1.47,-3.651 0.186,-7.759 1.96,-11.717c1.246,-2.78 3.987,-4.913 7.241,-4.889Zm9.169,16.958l3,0l0,2l-3,0l0,3l-2,0l0,-3l-3,0l0,-2l3,0l0,-3l2,0l0,3Zm-9.385,-14.959c-5.266,0.058 -7.521,7.802 -7.521,12.28c0,3.887 6.106,6.327 6.671,1.438c0.393,-3.4 -0.48,-8.452 3.422,-8.308c1.686,0.062 3.03,2.111 4.333,-0.24c0.734,-1.324 0.534,-2.902 -0.926,-3.89c-1.343,-0.909 -3.827,-1.283 -5.979,-1.28Z"/></svg>