<?xml version="1.0" encoding="UTF-8" standalone="no"?><!DOCTYPE svg PUBLIC "-//W3C//DTD SVG 1.1//EN" "http://www.w3.org/Graphics/SVG/1.1/DTD/svg11.dtd"><svg width="24px" height="24px" version="1.1" xmlns="http://www.w3.org/2000/svg" xmlns:xlink="http://www.w3.org/1999/xlink" xml:space="preserve" xmlns:serif="http://www.serif.com/" style="fill-rule:evenodd;clip-rule:evenodd;stroke-linejoin:round;stroke-miterlimit:1.41421;"><path d="M12.316,1.844c4.021,0.065 8.846,1.002 9.169,5.186c0.226,2.912 -2.183,5.857 -5.212,4.772c-1.252,-0.468 -2.836,-1.679 -2.916,2.15c-0.009,0.64 -0.003,1.28 -0.011,1.92c-0.058,3.236 -1.408,6.851 -5.106,6.209c-2.117,-0.367 -4.259,-1.48 -5.125,-3.63c-1.47,-3.652 0.186,-7.759 1.96,-11.717c1.247,-2.78 3.987,-4.914 7.241,-4.89Zm-0.216,2c-5.266,0.057 -7.52,7.801 -7.52,12.28c0,3.887 6.105,6.327 6.671,1.437c0.393,-3.4 -0.48,-8.451 3.421,-8.307c1.687,0.062 3.03,2.111 4.334,-0.241c0.733,-1.323 0.533,-2.901 -0.926,-3.889c-1.343,-0.909 -3.828,-1.284 -5.98,-1.28Z"/></svg>