<?xml version="1.0" encoding="UTF-8" standalone="no"?>
<!DOCTYPE svg PUBLIC "-//W3C//DTD SVG 1.1//EN" "http://www.w3.org/Graphics/SVG/1.1/DTD/svg11.dtd">
<svg width="24px" height="24px" version="1.1" xmlns="http://www.w3.org/2000/svg" xmlns:xlink="http://www.w3.org/1999/xlink" xml:space="preserve" xmlns:serif="http://www.serif.com/" style="fill-rule:evenodd;clip-rule:evenodd;stroke-linejoin:round;stroke-miterlimit:2;">
    <g id="Filled">
        <path d="M5,13c0,0 -3,4.2 -3,6c0,1.656 1.344,3 3,3c1.656,0 3,-1.344 3,-3c0,-1.8 -3,-6 -3,-6Zm15.803,-3.191c-0.262,0.127 -0.545,0.245 -0.847,0.354c-2.954,1.063 -7.876,1.336 -7.876,1.336l-0.054,-0.999c0,0 4.745,-0.254 7.592,-1.278c0.15,-0.054 0.295,-0.111 0.435,-0.169l-0.001,-0.001c0.604,-0.255 1.1,-0.552 1.427,-0.885c0.342,-0.348 0.521,-0.741 0.521,-1.167c0,-1.12 -0.777,-1.837 -1.936,-2.229c-1.399,-0.473 -3.377,-0.462 -4.678,-0.385l-2.386,-2.386l-9,9c0,0 4.562,4.562 7.672,7.672c1.562,1.562 4.094,1.562 5.656,-0c1.066,-1.066 2.278,-2.278 3.344,-3.344c1.517,-1.517 1.56,-3.949 0.131,-5.519Zm-1.523,-1.529c0.539,-0.194 1.004,-0.414 1.331,-0.676c0.227,-0.181 0.389,-0.37 0.389,-0.604c0,-0.42 -0.218,-0.722 -0.549,-0.946c-0.421,-0.285 -1.003,-0.454 -1.635,-0.561c-0.808,-0.137 -1.694,-0.166 -2.474,-0.151l2.938,2.938Z"/>
        <path d="M5,13c0,0 -3,4.2 -3,6c0,1.656 1.344,3 3,3c1.656,0 3,-1.344 3,-3c0,-1.8 -3,-6 -3,-6Zm-0,3.727c0.062,0.111 0.124,0.222 0.185,0.334c0.393,0.729 0.815,1.447 0.815,1.939c0,0.552 -0.448,1 -1,1c-0.552,0 -1,-0.448 -1,-1c0,-0.492 0.422,-1.21 0.815,-1.939l0.185,-0.334Zm15.803,-6.918c-0.262,0.127 -0.545,0.245 -0.847,0.354c-2.954,1.063 -7.876,1.336 -7.876,1.336l-0.054,-0.999c0,0 4.745,-0.254 7.592,-1.278l0.434,-0.17c0.604,-0.255 1.1,-0.552 1.427,-0.885c0.342,-0.348 0.521,-0.741 0.521,-1.167c0,-1.12 -0.777,-1.837 -1.936,-2.229c-1.399,-0.473 -3.377,-0.462 -4.678,-0.385l-2.386,-2.386l-9,9c0,0 4.562,4.562 7.672,7.672c1.562,1.562 4.094,1.562 5.656,-0c1.066,-1.066 2.278,-2.278 3.344,-3.344c1.517,-1.517 1.56,-3.949 0.131,-5.519Zm-6.269,-3.614c-0.207,-0.097 -0.398,-0.23 -0.563,-0.395c0,-0 -0.971,-0.972 -0.971,-0.972c0,0 -6.172,6.172 -6.172,6.172c0,-0 6.258,6.257 6.258,6.257c0.781,0.781 2.047,0.781 2.828,0c1.066,-1.065 2.278,-2.277 3.343,-3.343c0.441,-0.441 0.633,-1.036 0.576,-1.611c-3.18,0.929 -7.642,1.193 -7.642,1.193c-0.53,0.029 -1.051,-0.153 -1.446,-0.508c-0.396,-0.354 -0.634,-0.852 -0.662,-1.382l-0.056,-1.052c-0.029,-1.083 0.81,-1.993 1.892,-2.051c0,0 2.105,-0.104 4.273,-0.482l-1.264,-1.265c-0.166,-0.166 -0.298,-0.356 -0.394,-0.561Zm4.746,2.085c0.539,-0.194 1.004,-0.414 1.331,-0.676c0.227,-0.181 0.389,-0.37 0.389,-0.604c0,-0.42 -0.218,-0.722 -0.549,-0.946c-0.421,-0.285 -1.003,-0.454 -1.635,-0.561c-0.808,-0.137 -1.694,-0.166 -2.474,-0.151l2.938,2.938Z"/>
    </g>
</svg>
