<?xml version="1.0" encoding="UTF-8" standalone="no"?>
<!DOCTYPE svg PUBLIC "-//W3C//DTD SVG 1.1//EN" "http://www.w3.org/Graphics/SVG/1.1/DTD/svg11.dtd">
<svg width="24px" height="24px" version="1.1" xmlns="http://www.w3.org/2000/svg" xmlns:xlink="http://www.w3.org/1999/xlink" xml:space="preserve" xmlns:serif="http://www.serif.com/" style="fill-rule:evenodd;clip-rule:evenodd;stroke-linejoin:round;stroke-miterlimit:2;">
    <path d="M5,13c0,0 -3,4.2 -3,6c0,1.656 1.344,3 3,3c1.656,0 3,-1.344 3,-3c0,-1.8 -3,-6 -3,-6Zm-0,3.727c0.062,0.111 0.124,0.222 0.185,0.334c0.393,0.729 0.815,1.447 0.815,1.939c0,0.552 -0.448,1 -1,1c-0.552,0 -1,-0.448 -1,-1c0,-0.492 0.422,-1.21 0.815,-1.939l0.185,-0.334Zm10.386,-12.341c1.301,-0.077 3.279,-0.088 4.678,0.385c1.159,0.392 1.936,1.109 1.936,2.229c0,0.426 -0.179,0.819 -0.521,1.167c-0.403,0.41 -1.06,0.766 -1.862,1.054c-1.676,0.603 -4.009,0.939 -5.645,1.113c-0.159,0.945 -0.982,1.666 -1.972,1.666c-1.104,0 -2,-0.896 -2,-2c0,-1.104 0.896,-2 2,-2c0.873,0 1.616,0.56 1.889,1.341c1.572,-0.167 3.792,-0.486 5.39,-1.061c0.539,-0.194 1.004,-0.414 1.332,-0.676c0.227,-0.181 0.389,-0.37 0.389,-0.604c0,-0.42 -0.218,-0.722 -0.549,-0.946c-0.421,-0.285 -1.003,-0.454 -1.635,-0.561c-0.808,-0.137 -1.694,-0.166 -2.474,-0.151l2.147,2.147c-0.708,0.219 -1.507,0.393 -2.297,0.531l-3.192,-3.192l-6.172,6.172c0,-0 6.258,6.257 6.258,6.257c0.781,0.781 2.047,0.781 2.828,0c1.066,-1.065 2.278,-2.277 3.343,-3.343c0.781,-0.781 0.781,-2.047 0,-2.828l-0.546,-0.547c0.438,-0.113 0.858,-0.238 1.245,-0.377c0.301,-0.108 0.584,-0.227 0.846,-0.353c1.43,1.569 1.387,4.002 -0.13,5.519c-1.066,1.066 -2.278,2.278 -3.344,3.344c-1.562,1.562 -4.094,1.562 -5.656,-0c-3.11,-3.11 -7.672,-7.672 -7.672,-7.672l9,-9l2.386,2.386Z"/>
</svg>
