<?xml version="1.0" encoding="UTF-8" standalone="no"?><!DOCTYPE svg PUBLIC "-//W3C//DTD SVG 1.1//EN" "http://www.w3.org/Graphics/SVG/1.1/DTD/svg11.dtd"><svg width="24px" height="24px" version="1.1" xmlns="http://www.w3.org/2000/svg" xmlns:xlink="http://www.w3.org/1999/xlink" xml:space="preserve" xmlns:serif="http://www.serif.com/" style="fill-rule:evenodd;clip-rule:evenodd;stroke-linejoin:round;stroke-miterlimit:2;"><g id="Baked"><path d="M21,19l3,0l0,2l-3,0l0,3l-2,0l0,-3l-3,0l0,-2l3,0l0,-3l2,0l0,3Z"/><path d="M21.886,5.999l0.102,2.001c-0.151,-0.002 -0.303,-0.002 -0.454,0c-0.145,0.002 -0.29,0.007 -0.435,0.013c-7.384,0.376 -11.214,9.936 -19.093,9.987l-0.012,-2c0.127,-0.001 0.254,-0.003 0.381,-0.007c6.495,-0.276 9.5,-8.076 16.108,-9.632c1.134,-0.267 1.979,-0.368 3.403,-0.362Z"/><path d="M6.089,21.479c-1.247,0.343 -2.533,0.496 -3.824,0.519l-0.263,0.002l-0.004,-1c0.167,-0.001 0.333,-0.003 0.5,-0.007c0.161,-0.005 0.321,-0.012 0.482,-0.021c0.91,-0.057 1.813,-0.19 2.693,-0.417l0.15,-0.04c0.089,0.321 0.177,0.642 0.266,0.964Zm4.607,-2.314c-1.062,0.798 -2.221,1.465 -3.459,1.94l-0.157,0.058l-0.343,-0.94c0.137,-0.05 0.273,-0.102 0.409,-0.157c0.085,-0.035 0.171,-0.071 0.256,-0.108c0.919,-0.406 1.783,-0.922 2.592,-1.516l0.101,-0.077c0.201,0.267 0.401,0.533 0.601,0.8Zm3.733,-3.418c-0.938,0.918 -1.858,1.856 -2.855,2.711l-0.72,-0.7c0.965,-0.815 1.851,-1.716 2.749,-2.602l0.126,-0.124c0.234,0.239 0.467,0.477 0.7,0.715Zm3.811,-2.943c-0.791,0.38 -1.019,0.565 -1.451,0.878c-0.723,0.523 -1.648,1.381 -1.648,1.381l-0.681,-0.732c0.154,-0.143 0.309,-0.284 0.466,-0.424c0.868,-0.766 1.801,-1.462 2.834,-1.982c0,0 0.311,0.528 0.48,0.879Zm3.665,-1.805l0.1,0.001l-0.01,1c-0.125,-0.001 -0.248,-0.001 -0.372,0.001c-0.854,0.023 -1.704,0.164 -2.513,0.441l-0.331,-0.944c1.012,-0.358 1.85,-0.501 3.126,-0.499Z"/><path d="M5.496,10.912l0.542,0.84c-1.172,0.757 -2.543,1.223 -3.953,1.248l-0.088,-1c1.207,-0.007 2.185,-0.279 3.381,-1.014c0.039,-0.024 0.157,-0.099 0.118,-0.074Zm4.407,-2.464c-0.967,0.92 -1.92,1.859 -2.976,2.679l-0.644,-0.767c1.024,-0.777 1.941,-1.691 2.872,-2.581c0,0 0.49,0.398 0.748,0.669Zm3.773,-3.129c-0.123,0.08 -0.244,0.162 -0.365,0.245c-0.949,0.664 -1.833,1.418 -2.686,2.204l-0.677,-0.736c0.981,-0.904 2.004,-1.765 3.112,-2.506c0,0 0.413,0.481 0.616,0.793Zm4.404,-1.916c-0.153,0.036 -0.305,0.076 -0.457,0.117c-1.068,0.297 -2.097,0.728 -3.07,1.266l-0.544,-0.841c1.181,-0.673 2.461,-1.176 3.787,-1.502c0,0 0.195,0.582 0.284,0.96Zm3.791,-1.405l0.135,0.002l-0.012,1c-0.173,-0.002 -0.345,-0.002 -0.518,-0.001c-1.006,0.016 -2.45,0.213 -2.45,0.213l-0.163,-0.987c0.145,-0.024 0.291,-0.046 0.436,-0.067c0.853,-0.115 1.713,-0.164 2.572,-0.16Z"/></g></svg>