<?xml version="1.0" encoding="UTF-8" standalone="no"?><!DOCTYPE svg PUBLIC "-//W3C//DTD SVG 1.1//EN" "http://www.w3.org/Graphics/SVG/1.1/DTD/svg11.dtd"><svg width="24px" height="24px" version="1.1" xmlns="http://www.w3.org/2000/svg" xmlns:xlink="http://www.w3.org/1999/xlink" xml:space="preserve" xmlns:serif="http://www.serif.com/" style="fill-rule:evenodd;clip-rule:evenodd;stroke-linejoin:round;stroke-miterlimit:1.41421;"><path d="M10,4l0,3l1,0l0,1c1.1,0 2,0.9 2,2l0,10c0,1.1 -0.9,2 -2,2l-5,0c-1.1,0 -2,-0.9 -2,-2l0,-10c0,-1.1 0.9,-2 2,-2l0,-1l1,0l0,-3l3,0Zm10,13l3,0l0,2l-3,0l0,3l-2,0l0,-3l-3,0l0,-2l3,0l0,-3l2,0l0,3Zm-9,3l0,-10l-5,0l0,10l5,0Zm9,-12l0,2l-2,0l0,-2l2,0Zm-3,-2l0,2l-2,0l0,-2l2,0Zm3,-1l0,2l-2,0l0,-2l2,0Zm-6,-1l0,2l-2,0l0,-2l2,0Zm3,-1l0,2l-2,0l0,-2l2,0Zm3,-1l0,2l-2,0l0,-2l2,0Z"/></svg>