<?xml version="1.0" encoding="UTF-8" standalone="no"?><!DOCTYPE svg PUBLIC "-//W3C//DTD SVG 1.1//EN" "http://www.w3.org/Graphics/SVG/1.1/DTD/svg11.dtd"><svg width="24px" height="24px" version="1.1" xmlns="http://www.w3.org/2000/svg" xmlns:xlink="http://www.w3.org/1999/xlink" xml:space="preserve" xmlns:serif="http://www.serif.com/" style="fill-rule:evenodd;clip-rule:evenodd;stroke-linejoin:round;stroke-miterlimit:1.41421;"><path d="M19,17l3,0l0,2l-3,0l0,3l-2,0l0,-3l-3,0l0,-2l3,0l0,-3l2,0l0,3Zm-6.998,1.153l-3.002,1.847l-7,-13l12,-5c2.667,3.333 5.333,6.667 8,10l-1.16,0.714c-0.797,-0.429 -1.7,-0.683 -2.66,-0.711l0.845,-0.52l-1.655,-2.07l-2.15,1.173l1.148,1.639c-0.334,0.094 -0.657,0.217 -0.965,0.365l-1.066,-1.522l-2.469,1.346l1.277,2.062c-0.221,0.304 -0.414,0.628 -0.575,0.971l-1.581,-2.553l-2.739,1.494l1.506,2.798l2.808,-1.728c-0.362,0.772 -0.564,1.634 -0.564,2.542c0,0.051 0.001,0.102 0.002,0.153Zm-5.528,-7.063l1.302,2.417l2.686,-1.465l-1.363,-2.202l-2.625,1.25Zm3.533,-1.682l1.334,2.155l2.419,-1.32l-1.377,-1.967l-2.376,1.132Zm-5.199,-1.411l1.191,2.212l2.57,-1.224l-1.257,-2.032l-2.504,1.044Zm8.49,-0.157l1.345,1.921l2.092,-1.141l-1.4,-1.75l-2.037,0.97Zm-5.051,-1.276l1.23,1.988l2.325,-1.107l-1.281,-1.829l-2.274,0.948Zm3.219,-1.342l1.251,1.788l1.976,-0.942l-1.314,-1.643l-1.913,0.797Z"/></svg>