<?xml version="1.0" encoding="UTF-8" standalone="no"?><!DOCTYPE svg PUBLIC "-//W3C//DTD SVG 1.1//EN" "http://www.w3.org/Graphics/SVG/1.1/DTD/svg11.dtd"><svg width="24px" height="24px" version="1.1" xmlns="http://www.w3.org/2000/svg" xmlns:xlink="http://www.w3.org/1999/xlink" xml:space="preserve" xmlns:serif="http://www.serif.com/" style="fill-rule:evenodd;clip-rule:evenodd;stroke-linejoin:round;stroke-miterlimit:1.41421;"><path d="M7,12l3,-4l7,0l0.375,1l2.625,0c1.105,0 2,0.895 2,2c0,0.941 0,2.059 0,3c0,1.105 -0.895,2 -2,2l0,0c0,0 -3,3 -3,3l-9,0l-6,-11l2,0l3,4Zm12.25,2l0.75,0l0,-3l-1.875,0l1.125,3Zm-5.25,-8l2,0l0,1l-5,0l0,-1l2,0l0,-1l1,0l0,1Z"/></svg>