<?xml version="1.0" encoding="UTF-8" standalone="no"?><!DOCTYPE svg PUBLIC "-//W3C//DTD SVG 1.1//EN" "http://www.w3.org/Graphics/SVG/1.1/DTD/svg11.dtd"><svg width="24px" height="24px" version="1.1" xmlns="http://www.w3.org/2000/svg" xmlns:xlink="http://www.w3.org/1999/xlink" xml:space="preserve" xmlns:serif="http://www.serif.com/" style="fill-rule:evenodd;clip-rule:evenodd;stroke-linejoin:round;stroke-miterlimit:1.41421;"><path d="M12.5,5c-3.566,0 -6.5,2.934 -6.5,6.5c0,1.61 0.59,3.09 1.56,4.23l-0.27,0.27l-0.79,0l-5,5l1.5,1.5l5,-5l0,-0.79l0.27,-0.27c1.14,0.97 2.62,1.56 4.23,1.56c3.566,0 6.5,-2.934 6.5,-6.5c0,-3.566 -2.934,-6.5 -6.5,-6.5m0,2c2.5,0 4.5,2 4.5,4.5c0,2.5 -2,4.5 -4.5,4.5c-2.5,0 -4.5,-2 -4.5,-4.5c0,-2.5 2,-4.5 4.5,-4.5Z" style="fill-rule:nonzero;"/><path d="M22,2l0,7l-7,-7l7,0Z" style="fill-rule:nonzero;"/><path d="M22,21l-7,0l7,-7l0,7Z" style="fill-rule:nonzero;"/><path d="M3,2l7,0l-7,7l0,-7Z" style="fill-rule:nonzero;"/></svg>